<?xml version="1.0" encoding="UTF-8"?>
<svg width="52px" height="52px" viewBox="0 0 52 52" version="1.1" xmlns="http://www.w3.org/2000/svg" xmlns:xlink="http://www.w3.org/1999/xlink">
    <!-- Generator: Sketch 54.1 (76490) - https://sketchapp.com -->
    <title>gift-circle</title>
    <desc>Created with Sketch.</desc>
    <g id="Desktop" stroke="none" stroke-width="1" fill="none" fill-rule="evenodd" stroke-linecap="round" stroke-linejoin="round">
        <g class="svg-stroke" id="03A-Woonkrediet" transform="translate(-844.000000, -793.000000)" stroke="#222222" stroke-width="1.5">
            <g id="INTRO-+-PRODUCTS" transform="translate(0.000000, 80.000000)">
                <g id="PRODUCT-GRID" transform="translate(136.000000, 456.000000)">
                    <g id="gift-circle" transform="translate(709.000000, 258.000000)">
                        <path d="M25,0 L25,50" id="Path"></path>
                        <path d="M50,25 L0,25" id="Path"></path>
                        <path d="M21.0227273,13.0681818 C23.2181818,15.2659091 25,25 25,25 C25,25 15.2636364,23.2204545 13.0681818,21.0227273 C10.9092983,18.8197827 10.9271301,15.2891808 13.1081554,13.1081554 C15.2891808,10.9271301 18.8197827,10.9092983 21.0227273,13.0681818 L21.0227273,13.0681818 Z" id="Path"></path>
                        <path d="M28.9772727,13.0681818 C26.7818182,15.2659091 25,25 25,25 C25,25 34.7363636,23.2204545 36.9318182,21.0227273 C39.0907017,18.8197827 39.0728699,15.2891808 36.8918446,13.1081554 C34.7108192,10.9271301 31.1802173,10.9092983 28.9772727,13.0681818 Z" id="Path"></path>
                        <circle id="Oval" cx="25" cy="25" r="25"></circle>
                        <path d="M25,25 L15.9090909,32.9545455" id="Path"></path>
                        <path d="M25,25 L34.0909091,32.9545455" id="Path"></path>
                    </g>
                </g>
            </g>
        </g>
    </g>
</svg>