<?xml version="1.0" encoding="UTF-8"?>
<svg width="38px" height="50px" viewBox="0 0 38 50" version="1.1" xmlns="http://www.w3.org/2000/svg" xmlns:xlink="http://www.w3.org/1999/xlink">
    <!-- Generator: Sketch 54.1 (76490) - https://sketchapp.com -->
    <title>office-folder-sealed</title>
    <desc>Created with Sketch.</desc>
    <g id="Desktop" stroke="none" stroke-width="1" fill="none" fill-rule="evenodd" stroke-linecap="round" stroke-linejoin="round">
        <g class="svg-stroke" id="03A-Woonkrediet" transform="translate(-1151.000000, -794.000000)" stroke="#222222" stroke-width="1.5">
            <g id="INTRO-+-PRODUCTS" transform="translate(0.000000, 80.000000)">
                <g id="PRODUCT-GRID" transform="translate(136.000000, 456.000000)">
                    <g id="office-folder-sealed" transform="translate(1016.000000, 259.000000)">
                        <rect id="Rectangle" x="0.0416666667" y="0.0395833333" width="35.4166667" height="47.9166667" rx="2"></rect>
                        <path d="M0.810416667,1.79375 L6.5,14.7958333 C7.00628121,15.9558731 8.15096157,16.7064564 9.41666667,16.7083333 L26.0833333,16.7083333 C27.3480497,16.7071811 28.4924605,15.9584095 29,14.8 L34.6875,1.79583333" id="Path"></path>
                        <path d="M34.31875,46.6520833 L29.5375,41.1895833 C28.6659528,40.1938794 27.4065939,39.623446 26.0833333,39.625 L9.41666667,39.625 C8.0927612,39.6252789 6.83322248,40.1962091 5.96041667,41.1916667 L1.18125,46.6520833" id="Path"></path>
                        <circle id="Oval" cx="17.75" cy="7.33125" r="3.125"></circle>
                        <circle id="Oval" cx="17.75" cy="30.2479167" r="3.125"></circle>
                        <path d="M14.625,7.33125 L14.625,30.2479167" id="Path"></path>
                        <path d="M20.875,7.33125 L20.875,30.2479167" id="Path"></path>
                    </g>
                </g>
            </g>
        </g>
    </g>
</svg>