<?xml version="1.0" encoding="UTF-8"?>
<svg width="48px" height="50px" viewBox="0 0 48 50" version="1.1" xmlns="http://www.w3.org/2000/svg" xmlns:xlink="http://www.w3.org/1999/xlink">
    <!-- Generator: Sketch 54.1 (76490) - https://sketchapp.com -->
    <title>business-contract-handshake-sign</title>
    <desc>Created with Sketch.</desc>
    <g id="Desktop" stroke="none" stroke-width="1" fill="none" fill-rule="evenodd" stroke-linecap="round" stroke-linejoin="round">
        <g class="svg-stroke" id="03A-Woonkrediet" transform="translate(-846.000000, -591.000000)" stroke="#222222" stroke-width="1.5">
            <g id="INTRO-+-PRODUCTS" transform="translate(0.000000, 80.000000)">
                <g id="PRODUCT-GRID" transform="translate(136.000000, 456.000000)">
                    <g id="business-contract-handshake-sign" transform="translate(711.000000, 55.000000)">
                        <path d="M39.7272727,43.025 L31.5120909,44.6625" id="Path"></path>
                        <path d="M32.4090909,35.4166667 L28.5325455,37.0020833 C27.2820684,37.5052616 25.8560629,36.9335484 25.3038606,35.707641 C24.7516583,34.4817336 25.2707997,33.0401787 26.4792727,32.44375 L30.3537273,30.56875 C31.2051113,30.1445321 32.1941667,30.0880257 33.0886364,30.4125 L40.1621818,33.1083333" id="Path"></path>
                        <path d="M16.7272727,44.7916667 L19.6545455,44.7916667 L24.5263636,48.48125 C25.0364957,49.0514306 25.9071111,49.1194307 26.5001818,48.6354167 L33.8183636,42.7875 C34.4174349,42.2967845 34.5148252,41.419751 34.0379091,40.8104167 L30.0191818,36.3979167" id="Path"></path>
                        <path d="M26.1572727,32.65625 L25.6345455,32.2270833 C25.1070029,31.8414144 24.4697675,31.6334212 23.8154545,31.6333333 C23.4250228,31.6325638 23.0381071,31.7068372 22.6759091,31.8520833 L16.7272727,34.375" id="Path"></path>
                        <path d="M10.4545455,46.875 L14.6363636,46.875 C15.7911408,46.875 16.7272727,45.9422599 16.7272727,44.7916667 L16.7272727,34.375 C16.7272727,33.2244068 15.7911408,32.2916667 14.6363636,32.2916667 L10.4545455,32.2916667 L10.4545455,46.875 Z" id="Path"></path>
                        <path d="M46,46.875 L41.8181818,46.875 C40.6634046,46.875 39.7272727,45.9422599 39.7272727,44.7916667 L39.7272727,34.375 C39.7272727,33.2244068 40.6634046,32.2916667 41.8181818,32.2916667 L46,32.2916667 L46,46.875 Z" id="Path"></path>
                        <path d="M32.4090909,1.04166667 L6.27272727,1.04166667 C2.80839566,1.04166667 4.64275083e-16,3.83988698 0,7.29166667 L0,47.9166667 C0,48.4919633 0.468065943,48.9583333 1.04545455,48.9583333 L6.27272727,48.9583333" id="Path"></path>
                        <path d="M6.27272727,9.375 L20.9090909,9.375" id="Path"></path>
                        <path d="M6.27272727,15.625 L20.9090909,15.625" id="Path"></path>
                        <path d="M6.27272727,21.875 L13.5909091,21.875" id="Path"></path>
                        <path d="M27.1818182,27.0833333 L27.1818182,6.25 C27.1818182,3.37351693 29.5221479,1.04166667 32.4090909,1.04166667 C35.2945455,1.04166667 37.6363636,3.37291667 37.6363636,7.29166667 L27.1818182,7.29166667" id="Path"></path>
                    </g>
                </g>
            </g>
        </g>
    </g>
</svg>