<?xml version="1.0" encoding="UTF-8"?>
<svg width="52px" height="54px" viewBox="0 0 52 54" version="1.1" xmlns="http://www.w3.org/2000/svg" xmlns:xlink="http://www.w3.org/1999/xlink">
    <!-- Generator: Sketch 54.1 (76490) - https://sketchapp.com -->
    <title>real-estate-building-house copy</title>
    <desc>Created with Sketch.</desc>
    <g id="Desktop" stroke="none" stroke-width="1" fill="none" fill-rule="evenodd" stroke-linecap="round" stroke-linejoin="round">
        <g class="svg-stroke" id="03A-Woonkrediet" transform="translate(-544.000000, -791.000000)" stroke-width="1.5">
            <g id="INTRO-+-PRODUCTS" transform="translate(0.000000, 80.000000)">
                <g id="PRODUCT-GRID" transform="translate(136.000000, 456.000000)">
                    <g id="real-estate-building-house-copy" transform="translate(409.000000, 256.000000)">
                        <g id="_Group_" transform="translate(20.535714, 26.896552)" stroke="#000000">
                            <path d="M4.53296703,8.18462069 L4.53296703,23.683908 C4.53296703,24.3234792 5.04033665,24.841954 5.66620879,24.841954 L23.7980769,24.841954 C24.4239491,24.841954 24.9313187,24.3234792 24.9313187,23.683908 L24.9313187,8.18462069" id="Path"></path>
                            <path d="M0,12.1034483 L13.2679945,0.631844828 C14.1130884,-0.0989982695 15.3511974,-0.0989982695 16.1962912,0.631844828 L29.4642857,12.1034483" id="Path"></path>
                            <path d="M18.1318681,24.841954 L11.3324176,24.841954 L11.3324176,17.8936782 C11.3324176,15.9749648 12.8545264,14.4195402 14.7321429,14.4195402 C16.6097593,14.4195402 18.1318681,15.9749648 18.1318681,17.8936782 L18.1318681,24.841954 Z" id="Path"></path>
                        </g>
                        <path d="M18.1817672,52 L1.13637752,52 C0.508783602,52 1.82067824e-05,51.4863119 1.82067824e-05,50.8526455 L1.82067824e-05,1.15383605 C-0.00225271525,0.747937592 0.20805327,0.371035308 0.553066396,0.162684393 C0.898079522,-0.0456665222 1.32644685,-0.0544544024 1.67955727,0.139574631 L24.4067436,12.6572127 C24.7765498,12.86037 25.0048082,13.2533118 24.9999231,13.6783582 L24.9999231,26.7582" id="Path" stroke="#222222"></path>
                        <path d="M20.0892857,10.7586207 L20.0892857,0" id="Path" stroke="#222222"></path>
                        <path d="M0,13 L8.92857143,13" id="Path" stroke="#222222"></path>
                        <path d="M0,20.1724138 L11.6071429,20.1724138" id="Path" stroke="#222222"></path>
                        <path d="M0,26.4482759 L16.0714286,26.4482759" id="Path" stroke="#222222"></path>
                        <path d="M8.92857143,52 L8.92857143,44.1551724 C8.92857143,43.5362326 9.46156577,43.0344828 10.1190476,43.0344828 L14.8809524,43.0344828 C15.5384342,43.0344828 16.0714286,43.5362326 16.0714286,44.1551724 L16.0714286,52" id="Path" stroke="#222222"></path>
                    </g>
                </g>
            </g>
        </g>
    </g>
</svg>