<?xml version="1.0" encoding="UTF-8"?>
<svg width="42px" height="50px" viewBox="0 0 42 50" version="1.1" xmlns="http://www.w3.org/2000/svg" xmlns:xlink="http://www.w3.org/1999/xlink">
    <!-- Generator: Sketch 54.1 (76490) - https://sketchapp.com -->
    <title>shopping-bag-smile</title>
    <desc>Created with Sketch.</desc>
    <g id="Desktop" stroke="none" stroke-width="1" fill="none" fill-rule="evenodd" stroke-linecap="round" stroke-linejoin="round">
        <g class="svg-stroke" id="03A-Woonkrediet" transform="translate(-549.000000, -591.000000)" stroke="#222222" stroke-width="1.5">
            <g id="INTRO-+-PRODUCTS" transform="translate(0.000000, 80.000000)">
                <g id="PRODUCT-GRID" transform="translate(136.000000, 456.000000)">
                    <g id="shopping-bag-smile" transform="translate(414.000000, 56.000000)">
                        <path d="M10.9791667,29.2083333 C11.266815,29.2083333 11.5,29.4415184 11.5,29.7291667 C11.5,30.016815 11.266815,30.25 10.9791667,30.25 C10.6915184,30.25 10.4583333,30.016815 10.4583333,29.7291667 C10.4583333,29.4415184 10.6915184,29.2083333 10.9791667,29.2083333" id="Path"></path>
                        <path d="M28.6875,29.2083333 C28.9751483,29.2083333 29.2083333,29.4415184 29.2083333,29.7291667 C29.2083333,30.016815 28.9751483,30.25 28.6875,30.25 C28.3998517,30.25 28.1666667,30.016815 28.1666667,29.7291667 C28.1666667,29.4415184 28.3998517,29.2083333 28.6875,29.2083333" id="Path"></path>
                        <path d="M27.6291667,35.4583333 C25.8898974,38.063334 22.964557,39.6276283 19.8322917,39.6276283 C16.7000264,39.6276283 13.7746859,38.063334 12.0354167,35.4583333" id="Path"></path>
                        <path d="M10.4583333,18.7916667 L10.4583333,9.41666667 C10.4583333,4.23899714 14.6556638,0.0416666667 19.8333333,0.0416666667 C25.0110029,0.0416666667 29.2083333,4.23899714 29.2083333,9.41666667 L29.2083333,18.7916667" id="Path"></path>
                        <path d="M39.5541667,41.7083333 L37.6791667,14.625 C37.6002658,13.4529046 36.6268312,12.5423016 35.4520833,12.5416667 L4.20833333,12.5416667 C3.03358542,12.5423016 2.06015082,13.4529046 1.98125,14.625 L0.10625,41.7083333 C0.0590277778,42.4027778 0.0354166667,43.0972222 0.0354166667,43.7916667 C0.0354166667,46.0928531 1.90089688,47.9583333 4.20208333,47.9583333 L35.4520833,47.9583333 C37.7532698,47.9583333 39.61875,46.0928531 39.61875,43.7916667 C39.6229167,43.0972222 39.6013889,42.4027778 39.5541667,41.7083333 Z" id="Path"></path>
                    </g>
                </g>
            </g>
        </g>
    </g>
</svg>