<?xml version="1.0" encoding="UTF-8"?>
<svg width="41px" height="41px" viewBox="0 0 41 41" version="1.1" xmlns="http://www.w3.org/2000/svg" xmlns:xlink="http://www.w3.org/1999/xlink">
    <!-- Generator: Sketch 54.1 (76490) - https://sketchapp.com -->
    <title>rays</title>
    <desc>Created with Sketch.</desc>
    <g id="Symbols" stroke="none" stroke-width="1" fill="none" fill-rule="evenodd">
        <g id="button/button-speciale-CTA/default" transform="translate(-152.000000, 0.000000)" fill="#EBBD00">
            <g id="rays">
                <g transform="translate(152.000000, 0.000000)">
                    <path d="M40.4727336,40.4179033 C40.1235018,40.7961017 39.6572019,41 39.1330254,41 L34.96921,41 C33.9800489,41 33.1638596,40.2429454 33.1059831,39.2530521 C32.1451026,22.3347558 18.6638375,8.8518168 1.74681628,7.86192348 C0.756997568,7.80404267 0,6.98844951 0,6.02749659 L0,1.86336729 C0,1.33915136 0.203225238,0.873473971 0.582052865,0.52421593 C0.931284584,0.174957889 1.39758456,0 1.86322685,0 L1.95069921,0 C12.141557,0.52421593 21.720766,4.80476458 28.9421677,12.0556509 C36.1925075,19.2762814 40.4727336,28.8568701 40.99691,39.0491538 C41.0258482,39.5437716 40.8515612,40.0390471 40.4727336,40.4179033" id="Fill-24"></path>
                    <path d="M25.5039455,40.3904407 C25.155941,40.7968136 24.6624431,41 24.1401086,41 L20.2229281,41 C19.2654242,41 18.4815948,40.2737723 18.3950852,39.3174851 C17.5535828,30.4664213 10.5318875,23.4446909 1.68234943,22.6031058 C0.724845527,22.5152768 0,21.7320258 0,20.7744278 L0,16.8575174 C0,16.3344762 0.203166468,15.8415852 0.609499404,15.492891 C0.928011995,15.1750025 1.39267337,15 1.85667937,15 L2.0015174,15 C8.18171027,15.492891 14.0138987,18.1913381 18.3950852,22.6031058 C22.8051083,26.9840678 25.5039455,32.8168297 25.996788,38.9976303 C26.0262799,39.5193607 25.85195,40.0135626 25.5039455,40.3904407" id="Fill-25"></path>
                </g>
            </g>
        </g>
    </g>
</svg>