<?xml version="1.0" encoding="UTF-8"?>
<svg width="448px" height="294px" viewBox="0 0 448 294" version="1.1" xmlns="http://www.w3.org/2000/svg" xmlns:xlink="http://www.w3.org/1999/xlink">
    <!-- Generator: Sketch 54.1 (76490) - https://sketchapp.com -->
    <title>Main image</title>
    <desc>Created with Sketch.</desc>
    <g id="Desktop" stroke="none" stroke-width="1" fill="none" fill-rule="evenodd">
        <g id="01b-Home---active-items" transform="translate(-796.000000, -158.000000)">
            <g id="Hero" transform="translate(0.000000, 80.000000)">
                <g id="Main-image" transform="translate(796.000000, 78.000000)">
                    <path d="M222.000418,175 C261.212308,175 293,143.212769 293,104.000418 C293,64.787231 261.212308,33 222.000418,33 C182.786857,33 151,64.787231 151,104.000418 C151,143.212769 182.786857,175 222.000418,175 Z" id="Fill-1" fill="#EFF3F6"></path>
                    <path d="M208.943169,143.658949 C208.642829,143.39518 208.578411,143.014647 208.578411,142.613954 L208.578411,135.778648 C208.578411,135.725726 208.472163,135.671964 208.478856,135.619043 C208.503117,135.369554 208.980816,129.214671 201.382819,123.279034 C192.413635,116.873822 187,105.795535 187,93.6806543 C187,73.4553047 203.368069,57 223.503346,57 C243.632767,57 260,73.4553047 260,93.6806543 C260,108.288738 254.93188,117.483682 242.516743,125.402624 C235.810562,130.440271 236.173646,139.000154 236.176992,139.086677 C236.215476,139.804901 235.695948,140.436602 234.985675,140.534885 L209.928683,143.9874 C209.865938,143.9958 209.802356,144 209.740448,144 C209.409154,144 209.194985,143.879876 208.943169,143.658949 Z" id="Fill-3" fill="#EFF3F6"></path>
                    <path d="M257.500402,149.990083 C256.116343,149.990083 254.991243,151.115787 254.991243,152.500402 C254.991243,153.884213 256.116343,155.009917 257.500402,155.009917 C258.884461,155.009917 260.008757,153.884213 260.008757,152.500402 C260.008757,151.115787 258.884461,149.990083 257.500402,149.990083 M257.500402,157 C255.019391,157 253,154.981774 253,152.500402 C253,150.01903 255.019391,148 257.500402,148 C259.981414,148 262,150.01903 262,152.500402 C262,154.981774 259.981414,157 257.500402,157" id="Fill-5" fill="#0A51A1"></path>
                    <path d="M290.615212,130 L266.383109,130 C265.619378,130 265,129.327978 265,128.499545 C265,127.671112 265.619378,127 266.383109,127 L290.615212,127 C291.378944,127 292,127.671112 292,128.499545 C292,129.327978 291.378944,130 290.615212,130" id="Fill-7" fill="#222222"></path>
                    <path d="M174.600679,120 L156.40017,120 C155.627106,120 155,119.328182 155,118.5 C155,117.671818 155.627106,117 156.40017,117 L174.600679,117 C175.373742,117 176,117.671818 176,118.5 C176,119.328182 175.373742,120 174.600679,120" id="Fill-9" fill="#222222"></path>
                    <path d="M329.461332,164 C329.392327,164 329.323322,163.994929 329.254317,163.985632 C328.455451,163.876601 327.900756,163.170862 328.01488,162.408495 L332.981473,129.099292 C332.623177,128.425671 331.866776,127.020954 331.301466,126.097154 C330.893628,125.432829 331.128953,124.578335 331.825196,124.189545 C332.523208,123.80329 333.416735,124.025576 333.821034,124.690746 C334.6314,126.016015 335.748751,128.148446 335.795639,128.238037 L336,128.627673 L330.906014,162.801511 C330.800737,163.497108 330.177038,164 329.461332,164" id="Fill-11" fill="#222222"></path>
                    <path d="M340.343392,164 C339.609103,164 339.012291,163.533894 339.010673,162.78267 C339.009056,162.53722 338.944361,138.252595 339.153811,129.508146 L339.161898,129.225507 L341.483642,124.722294 C341.826526,124.056192 342.633597,123.80909 343.286208,124.157843 C343.938011,124.507422 344.189513,125.336331 343.846629,126.003259 L341.813587,129.961856 C341.613032,138.926961 341.677727,162.531435 341.677727,162.773579 C341.679345,163.526456 341.08415,164 340.348244,164 L340.343392,164 Z" id="Fill-13" fill="#222222"></path>
                    <path d="M376.631433,193 C375.892713,193 375.285818,192.577006 375.265091,191.826697 C375.253483,191.431399 374.164887,152.283517 373.063853,137.993218 C372.733875,133.717962 371.782908,130.556421 361.974759,125.178361 C361.587573,124.966864 360.804082,124.537996 359.858918,123.993307 C357.856663,122.841825 354.832138,121.112923 353.802407,120.637895 C353.114261,120.321489 352.809985,119.505715 353.123381,118.809958 C353.435948,118.112523 354.247629,117.808706 354.934116,118.125112 C356.077433,118.651336 359.043921,120.359256 361.210337,121.605576 C362.133944,122.136836 362.898366,122.577454 363.277261,122.784755 C373.355694,128.310527 375.342196,132.050327 375.792393,137.863131 C376.8984,152.223089 377.988655,191.354186 377.999433,191.749483 C378.02099,192.513222 377.424873,193 376.6704,193 L376.631433,193 Z" id="Fill-15" fill="#222222"></path>
                    <path d="M271.378877,184 C271.026272,184 270.671996,183.867096 270.402947,183.599626 C269.865684,183.063856 269.865684,182.195825 270.402947,181.660886 L273.404265,178.677186 C273.753527,178.329974 274.264052,178.195409 274.740319,178.323329 L281.237604,180.076834 L301.909264,172.64998 C303.1509,167.018164 310.728559,133.083566 314.379104,125.591091 C314.501095,125.340234 314.699122,125.131741 314.94394,124.995514 C320.5547,121.847345 330.729268,118.232351 331.158743,118.079511 C331.874815,117.826162 332.665251,118.198294 332.91926,118.910993 C333.175776,119.624522 332.800611,120.407827 332.083704,120.662006 C331.982602,120.697724 322.173172,124.183967 316.680226,127.170159 C312.836668,135.710085 304.523719,173.586124 304.438492,173.974039 C304.339061,174.432558 304.008181,174.810504 303.561158,174.969989 L281.766511,182.80137 C281.498297,182.896895 281.210031,182.908524 280.936804,182.835427 L274.789617,181.177447 L272.353135,183.599626 C272.084086,183.867096 271.731481,184 271.378877,184" id="Fill-17" fill="#222222"></path>
                    <path d="M336.60234,123 C336.218167,123 335.837386,122.844886 335.561765,122.539717 C333.879204,120.681725 331.788725,119.895197 331.769219,119.88761 L330.717619,119.498983 L330.864334,118.392112 C330.869422,118.36345 331.237482,115.647274 331.107729,111.895883 C327.704445,109.637462 325.744567,104.992481 325.27898,98.0680036 C324.328299,83.9012343 326.095666,80.1245532 326.300049,79.740984 C326.660477,79.0615186 327.506846,78.8018718 328.191234,79.1626797 C328.873926,79.5218017 329.13513,80.3639678 328.773006,81.0425902 C328.773006,81.0442762 327.181189,84.609362 328.071657,97.8825415 C328.493993,104.163803 330.246943,108.308879 333.142236,109.870132 L333.832561,110.242742 L333.87242,111.022526 C334.021679,113.997505 333.870724,116.4279 333.751994,117.732879 C334.740838,118.236998 336.28262,119.177796 337.641219,120.679196 C338.157691,121.249913 338.111047,122.129172 337.536907,122.643407 C337.269767,122.881979 336.93563,123 336.60234,123" id="Fill-19" fill="#222222"></path>
                    <path d="M345.273827,90 C344.548717,90 343.944597,89.4304417 343.909792,88.6983894 C343.893218,88.5591088 343.642123,87.0237057 340.599149,87.0237057 C339.827632,87.0237057 339.077662,87.0328253 338.352552,87.0411158 C332.753049,87.109927 327.924234,87.1663025 326.145851,82.5302475 L326,82.1538581 L326.084527,81.7584007 C327.11874,76.8354938 331.289571,72.8029881 336.710076,71.4839674 C344.462533,69.5970466 351.034097,73.5217756 353.284009,78.1702665 C355.564582,82.8825943 354.924828,87.8162788 354.895823,88.0235416 C354.793894,88.773004 354.097789,89.2961354 353.356934,89.193333 C352.611107,89.0921888 352.086542,88.4040762 352.186814,87.6562719 C352.195101,87.5949221 352.728782,83.3020942 350.823608,79.3624423 C349.400736,76.4234553 344.490708,72.4058725 337.357288,74.141906 C332.56162,75.3083813 329.682728,78.8144394 328.856517,81.9134333 C330.029123,84.2886653 332.972654,84.3682543 338.320233,84.3060754 C339.055287,84.2969559 339.817688,84.2878363 340.599149,84.2878363 C345.217475,84.2878363 346.569908,87.0867136 346.641176,88.5665702 C346.67681,89.321836 346.094236,89.9626927 345.340122,89.9983419 C345.319405,90 345.296201,90 345.273827,90" id="Fill-21" fill="#222222"></path>
                    <path d="M353.720892,121 C353.507936,121 353.292656,120.943308 353.094413,120.823255 L349.303013,118.527234 L349.000227,102.40423 C348.987063,101.644725 349.547719,101.016112 350.252411,101.001106 C350.978787,100.970259 351.541766,101.588867 351.55648,102.348372 L351.829064,116.899843 L354.34892,118.425522 C354.96301,118.798187 355.182161,119.63606 354.835236,120.298855 C354.601371,120.747388 354.166939,121 353.720892,121" id="Fill-23" fill="#222222"></path>
                    <path d="M348.915485,103 C348.254539,103 347.68005,102.51192 347.594402,101.843515 C347.501481,101.119008 348.019411,100.457816 348.749844,100.36565 C351.37585,100.036256 351.997204,98.9270563 352.233948,98.121604 C352.637949,96.7575445 351.811363,95.2612466 350.390896,94.7843868 C349.589358,94.5159027 348.754692,94.6248993 348.102635,95.0825244 C347.501481,95.5040845 346.670048,95.3630302 346.245039,94.766755 C345.819222,94.1704799 345.963046,93.345793 346.562583,92.9234314 C347.899018,91.9873436 349.647534,91.7453072 351.244954,92.2782682 C354.003472,93.2047386 355.594428,96.1588651 354.792082,98.865345 C354.316169,100.480257 352.938526,102.50631 349.084357,102.989581 C349.027797,102.996794 348.970429,103 348.915485,103" id="Fill-25" fill="#222222"></path>
                    <path d="M325.783379,182 C325.336411,182 324.913491,181.78009 324.656422,181.408888 L322.241634,177.913471 C321.813739,177.293423 321.968809,176.443544 322.59075,176.016125 C323.214349,175.587878 324.066822,175.746611 324.495547,176.366658 L326.445953,179.19077 L360.171725,175.501072 L357.716303,142.464094 C357.659085,141.713423 358.224636,141.058652 358.979258,141.003261 C359.723099,140.952004 360.388161,141.510874 360.443721,142.262372 L362.996165,176.611371 C363.050896,177.343027 362.513539,177.98705 361.781308,178.06807 L325.932645,181.991733 C325.88206,181.996693 325.832305,182 325.783379,182" id="Fill-27" fill="#222222"></path>
                    <path d="M335.281416,113 C333.418931,113 332.041135,112.547544 331.940261,112.513933 C331.22922,112.273485 330.836384,111.472854 331.065197,110.724793 C331.293189,109.977595 332.053437,109.565644 332.766938,109.805231 C332.795643,109.815572 336.181904,110.898881 338.965379,109.1942 C339.612451,108.797762 340.439129,109.027868 340.815562,109.706121 C341.191996,110.384374 340.973845,111.254813 340.328413,111.650389 C338.610269,112.704395 336.78715,113 335.281416,113" id="Fill-29" fill="#222222"></path>
                    <path d="M446.621402,294 L1.37776228,294 C0.616609194,294 0,293.327477 0,292.500454 C0,291.670706 0.616609194,291 1.37776228,291 L446.621402,291 C447.383391,291 448,291.670706 448,292.500454 C448,293.327477 447.383391,294 446.621402,294" id="Fill-31" fill="#222222"></path>
                    <path d="M404.5,291 C403.670909,291 403,290.383243 403,289.622744 L403,201.379763 C403,200.617592 403.670909,200 404.5,200 C405.327273,200 406,200.617592 406,201.379763 L406,289.622744 C406,290.383243 405.327273,291 404.5,291" id="Fill-33" fill="#222222"></path>
                    <path d="M390.144935,294 L390.138253,294 C389.376522,294 388.763461,293.441614 388.768473,292.683209 L389.236203,208.749427 L52.7554307,208.749427 L52.7554307,292.62487 C52.7554307,293.383275 52.1390294,294 51.378133,294 C50.6172365,294 50,293.383275 50,292.62487 L50,207.374297 C50,206.615058 50.6172365,206 51.378133,206 L390.621017,206 C390.98852,206 391.340987,206.145014 391.598239,206.405038 C391.857996,206.66423 392.001656,207.01593 391.999986,207.381798 L391.523068,292.69821 C391.519727,293.454948 390.903326,294 390.144935,294" id="Fill-35" fill="#222222"></path>
                    <path d="M37.5004547,292 C36.6720218,292 36,291.381583 36,290.621098 L36,202.379738 C36,201.617581 36.6720218,201 37.5004547,201 C38.3288875,201 39,201.617581 39,202.379738 L39,290.621098 C39,291.381583 38.3288875,292 37.5004547,292" id="Fill-37" fill="#222222"></path>
                    <path d="M417.618749,201 L331.298958,201 C330.537178,201 329.916871,200.383287 329.916871,199.624896 C329.916871,198.864005 330.537178,198.248958 331.298958,198.248958 L416.237499,198.248958 L416.237499,192.749375 L26.7625012,192.749375 L26.7625012,198.248958 L47.4795859,198.248958 C48.2422036,198.248958 48.8608365,198.864005 48.8608365,199.624896 C48.8608365,200.383287 48.2422036,201 47.4795859,201 L25.3820877,201 C24.61947,201 24,200.383287 24,199.624896 L24,191.375104 C24,190.615047 24.61947,190 25.3820877,190 L417.618749,190 C418.38053,190 419,190.615047 419,191.375104 L419,199.624896 C419,200.383287 418.38053,201 417.618749,201" id="Fill-39" fill="#222222"></path>
                    <path d="M282.394827,292 C282.268156,292 282.138952,291.983308 282.010592,291.948255 C281.27168,291.737937 280.842689,290.975951 281.053807,290.24401 L282.200598,286.275506 C282.290957,285.960864 282.491941,285.688785 282.767239,285.507678 L288.269813,281.882193 L298.225283,210.190402 C298.330842,209.436762 299.040198,208.910132 299.795155,209.012787 C300.557712,209.115442 301.092263,209.811495 300.986704,210.565135 L290.946786,282.870355 C290.89274,283.260946 290.671489,283.609807 290.337922,283.828471 L284.739923,287.519054 L283.732469,291.000989 C283.557664,291.605236 283.000313,292 282.394827,292" id="Fill-41" fill="#222222"></path>
                    <path d="M233.367563,291 C233.153552,291 232.936222,290.949104 232.732164,290.842305 C232.063585,290.488535 231.805609,289.657509 232.157319,288.984177 L234.229417,285.015943 C234.387852,284.711401 234.654122,284.478613 234.974311,284.360968 L246.77399,280.05732 L268.327795,211.959056 C268.556738,211.234828 269.329835,210.834333 270.047355,211.065452 C270.766534,211.295737 271.164696,212.069192 270.934923,212.795088 L249.17706,281.536647 C249.048487,281.943816 248.739083,282.268384 248.340921,282.413563 L236.405203,286.768107 L234.581126,290.263257 C234.336423,290.733004 233.860288,291 233.367563,291" id="Fill-43" fill="#222222"></path>
                    <path d="M308.373816,286 C308.305681,286 308.237545,285.994996 308.16941,285.984988 C307.42158,285.873232 306.903085,285.174341 307.015259,284.42124 L316.048212,223.490946 C316.148753,222.81624 316.725413,222.306667 317.405107,222.306667 L317.406769,222.306667 C317.406769,222.306667 348.692643,222.380059 355.04338,222.380059 C365.605229,222.380059 366.238392,211.76075 366.259165,211.309557 C366.296556,210.552286 366.923071,209.962649 367.692505,210.001847 C368.446982,210.037709 369.03112,210.67822 368.998714,211.437159 C368.992067,211.573935 368.249223,225.142263 355.04338,225.142263 C349.431333,225.142263 324.351615,225.093892 318.586678,225.082216 L309.727388,284.827397 C309.625185,285.509609 309.041047,286 308.373816,286" id="Fill-45" fill="#222222"></path>
                    <path d="M361.276359,235 L326.384594,235 C325.619291,235 325,234.380852 325,233.615725 C325,232.851438 325.619291,232.23229 326.384594,232.23229 L361.233563,232.23229 C362.174247,232.168529 376.229973,230.877378 376.229973,211.383436 C376.229973,210.619148 376.851782,210 377.615406,210 C378.380709,210 379,210.619148 379,211.383436 C379,233.815396 361.523908,234.988255 361.348526,234.998322 C361.324191,235 361.299016,235 361.276359,235" id="Fill-47" fill="#222222"></path>
                    <path d="M323.401346,294 C323.345396,294 323.286902,293.996655 323.230951,293.989965 C322.462901,293.897146 321.917805,293.20978 322.010209,292.453009 L329.212589,234.212543 C329.307535,233.456608 330.007767,232.918924 330.770731,233.010071 C331.537933,233.102054 332.082181,233.78942 331.989777,234.547028 L324.787398,292.786657 C324.700928,293.487402 324.098187,294 323.401346,294" id="Fill-49" fill="#222222"></path>
                    <path d="M368.690239,294 C368.024516,294 367.45469,293.464386 367.389703,292.749396 L362.006071,233.515034 C361.937121,232.755619 362.463359,232.079187 363.182973,232.007101 C363.916852,231.929986 364.54057,232.489908 364.610313,233.250999 L369.993944,292.483685 C370.062894,293.245614 369.535072,293.919532 368.817043,293.993294 C368.773454,293.998324 368.732242,294 368.690239,294" id="Fill-51" fill="#222222"></path>
                    <path d="M264.402792,292 C264.258148,292 264.111803,291.97752 263.965457,291.930062 C263.229475,291.694437 262.828726,290.918458 263.070367,290.198263 L283.260952,229.945814 C283.503443,229.225618 284.29473,228.831801 285.032414,229.06909 C285.770098,229.304715 286.170846,230.080694 285.930057,230.802554 L265.736919,291.053339 C265.542926,291.632825 264.99413,292 264.402792,292" id="Fill-53" fill="#222222"></path>
                    <path d="M103.537234,164 C102.822473,164 102.197942,163.497117 102.094443,162.801534 L97,128.628337 L97.2043439,128.238709 C97.251228,128.149119 98.3684846,126.016728 99.177014,124.691485 C99.5839326,124.026327 100.480922,123.802354 101.173569,124.190292 C101.869753,124.57823 102.105058,125.432708 101.699024,126.097865 C101.134646,127.021648 100.378308,128.426339 100.018274,129.099948 L104.985334,162.408524 C105.098563,163.170878 104.543915,163.876604 103.745117,163.985632 C103.675233,163.994929 103.606234,164 103.537234,164" id="Fill-55" fill="#222222"></path>
                    <path d="M93.6556145,164 L93.6515711,164 C92.9148575,164 92.3196641,163.527343 92.3220902,162.774561 C92.3228989,162.533275 92.3867851,138.861568 92.1854222,129.896778 L90.1531926,125.977523 C89.8103094,125.310679 90.0626197,124.504187 90.7144211,124.153826 C91.3670312,123.805117 92.1732919,124.070367 92.516175,124.736384 L94.8379144,129.260508 L94.8460013,129.581122 C95.0554511,138.324458 94.9907562,162.53658 94.9899475,162.781172 C94.9875215,163.533127 94.3907107,164 93.6556145,164" id="Fill-57" fill="#222222"></path>
                    <path d="M57.3678247,193 L57.3288562,193 C56.5735309,193 55.9782251,192.514945 56.0006112,191.749599 C56.0105606,191.354338 57.1008491,152.141253 58.2077199,137.783459 C58.6571011,131.970352 60.6436647,128.275374 70.7224072,122.749272 C71.1004844,122.541991 71.8657591,122.123233 72.7902242,121.591183 C74.955877,120.345817 77.9224566,118.649803 79.0658085,118.123627 C79.751488,117.807251 80.5640223,118.119431 80.8765993,118.816803 C81.1900055,119.512496 80.8857196,120.336586 80.1983819,120.652962 C79.1669607,121.127108 76.1431721,122.868438 74.1408553,124.019814 C73.1956623,124.563613 72.412147,125.0151 72.0241204,125.226577 C62.2164991,130.604142 61.2655022,133.809029 60.9355138,138.08473 C59.8344468,152.372871 58.7449875,191.431544 58.734209,191.826805 C58.713481,192.577046 58.1065676,193 57.3678247,193" id="Fill-59" fill="#222222"></path>
                    <path d="M161.621571,184 C161.268138,184 160.915541,183.867096 160.646497,183.599626 L158.210067,181.177447 L152.063847,182.835427 C151.789791,182.908524 151.499023,182.896895 151.233322,182.80137 L129.438304,174.969989 C128.992126,174.810504 128.661253,174.432558 128.560153,173.974039 C128.474928,173.586124 120.163828,135.710085 116.31868,127.170159 C110.825016,124.182306 101.017466,120.697724 100.916366,120.662006 C100.198639,120.407827 99.8243177,119.624522 100.080828,118.910993 C100.334832,118.198294 101.124415,117.826162 101.841307,118.079511 C102.27161,118.232351 112.446796,121.847345 118.057436,124.995514 C118.301413,125.132571 118.497765,125.340234 118.620589,125.591091 C122.271891,133.083566 129.847718,167.018164 131.090999,172.64998 L151.761382,180.076834 L158.259364,178.323329 C158.734786,178.195409 159.245299,178.329974 159.594555,178.677186 L162.595808,181.660886 C163.134731,182.195825 163.134731,183.063856 162.595808,183.599626 C162.326765,183.867096 161.974168,184 161.621571,184" id="Fill-61" fill="#222222"></path>
                    <path d="M97.398494,123 C97.0643802,123 96.7311145,122.882012 96.4622971,122.643506 C95.8890462,122.129414 95.842406,121.2504 96.3588406,120.679842 C97.7173436,119.178861 99.2590155,118.238325 100.248637,117.734346 C100.129068,116.429731 99.9781232,114.000012 100.12822,111.025862 L100.167228,110.246295 L100.857504,109.873789 C103.751743,108.312971 105.506264,104.169049 105.929418,97.8895373 C106.818974,84.6200546 105.226422,81.0559618 105.21031,81.021408 C104.84906,80.3429747 105.117878,79.5178985 105.799673,79.1580339 C106.485709,78.799012 107.338801,79.0745992 107.699203,79.7530326 C107.90442,80.1364949 109.671661,83.9121242 108.721048,98.0749477 C108.254646,104.998339 106.294908,109.642026 102.891866,111.898976 C102.76297,115.649322 103.130155,118.364741 103.135243,118.393395 L103.287884,119.505857 L102.226183,119.890163 C102.210071,119.896062 100.120588,120.68237 98.4389953,122.539845 C98.1625459,122.84493 97.7809439,123 97.398494,123" id="Fill-63" fill="#222222"></path>
                    <path d="M88.7278032,90 C88.7054284,90 88.6822248,90 88.65985,89.9983434 C87.9049063,89.9627273 87.3248178,89.304243 87.3596231,88.5505063 C87.4308911,87.0720227 88.783326,84.274914 93.401659,84.274914 C94.183121,84.274914 94.9438657,84.2840251 95.6797493,84.2931362 C101.024022,84.3552573 103.972529,84.2757422 105.143479,81.902714 C104.318096,78.8065954 101.438371,75.3037903 96.6435249,74.1383973 C89.5134088,72.4039745 84.6000593,76.4178297 83.1771851,79.3540899 C81.2521201,83.3273592 81.8065189,87.5946687 81.8123198,87.6377394 C81.9142496,88.3848499 81.3913413,89.0739806 80.6430272,89.1758593 C79.9013426,89.2785663 79.2060651,88.7559202 79.1041353,88.0071532 C79.0751309,87.8000827 78.4353761,82.8709758 80.7167813,78.1630202 C82.9650385,73.5188423 89.5382697,69.5994113 97.2890805,71.4829248 C102.710422,72.7998934 106.881258,76.8294859 107.915473,81.7478252 L108,82.1429158 L107.854149,82.5189559 C106.075764,87.1507095 101.243627,87.093558 95.6474301,87.0256389 C94.9223195,87.0173561 94.172348,87.008245 93.401659,87.008245 C90.3586805,87.008245 90.1075851,88.5413952 90.0893538,88.716991 C90.0545484,89.4475358 89.4520851,90 88.7278032,90" id="Fill-65" fill="#222222"></path>
                    <path d="M79.2797563,121 C78.8328496,121 78.3991101,120.745581 78.164426,120.293841 C77.8182088,119.626307 78.0366277,118.782443 78.6516085,118.407112 L81.1719453,116.870524 L81.4438071,102.286368 C81.4585232,101.530669 82.0278064,101 82.7210152,101 L82.748124,101 C83.4529508,101 84.0129396,101.57685 83.9997725,102.341786 L83.6977038,118.544817 L79.9048061,120.839624 C79.7072996,120.960536 79.4912044,121 79.2797563,121" id="Fill-67" fill="#222222"></path>
                    <path d="M84.0842472,103 C84.0284976,103 83.9719401,102.996794 83.9153825,102.989581 C80.0613891,102.506316 78.6838086,100.479485 78.2079172,98.8645923 C77.4056078,96.1597471 78.9964911,93.2048541 81.7532679,92.2791959 C83.3506149,91.7454398 85.1014752,91.9858705 86.4362336,92.9243516 C87.0381675,93.3459067 87.1803694,94.1713854 86.7545718,94.7676535 C86.3287742,95.3631201 85.4965702,95.5041728 84.8970601,95.0826177 C84.2450323,94.624998 83.4104043,94.5152013 82.607287,94.7852851 C81.1885004,95.2613378 80.3619521,96.7576181 80.7667426,98.1200586 C81.0042843,98.9279057 81.6239935,100.036291 84.24988,100.365681 C84.9794725,100.457846 85.4973781,101.119031 85.4052701,101.843528 C85.3196258,102.511926 84.7451626,103 84.0842472,103" id="Fill-69" fill="#222222"></path>
                    <path d="M108.216537,182 C108.167611,182 108.117856,181.996693 108.067271,181.991733 L72.2186944,178.068108 C71.4856353,177.987089 70.9491091,177.343072 71.0038397,176.611423 L73.5562783,142.262757 C73.6118382,141.511266 74.2694353,140.949095 75.0215672,141.003658 C75.7745282,141.059049 76.3409076,141.713813 76.2836892,142.464477 L73.8291023,175.501134 L107.553135,179.190797 L109.505195,176.366713 C109.933918,175.746671 110.78556,175.58794 111.408329,176.016183 C112.030268,176.443598 112.186997,177.293469 111.758273,177.913511 L109.343491,181.408893 C109.086423,181.780092 108.663504,182 108.216537,182" id="Fill-71" fill="#222222"></path>
                    <path d="M98.720226,113 C97.2140597,113 95.3912376,112.704395 93.6717797,111.650389 C93.0261627,111.254813 92.8079491,110.384374 93.1844907,109.706121 C93.5602119,109.027868 94.3887674,108.797762 95.0360251,109.1942 C97.8186592,110.899743 101.205893,109.815572 101.237886,109.804369 C101.951593,109.569954 102.710418,109.983627 102.936015,110.729964 C103.161612,111.477163 102.771945,112.273485 102.06152,112.513933 C101.960616,112.547544 100.582425,113 98.720226,113" id="Fill-73" fill="#222222"></path>
                    <path d="M159.605673,292 C158.999349,292 158.441159,291.605236 158.266355,291.000989 L157.2606,287.519054 L151.660966,283.828471 C151.329092,283.609807 151.107843,283.260946 151.053797,282.870355 L141.013133,210.565135 C140.90842,209.811495 141.441276,209.115442 142.20467,209.012787 C142.958776,208.910132 143.668969,209.436762 143.773683,210.190402 L153.729056,281.882193 L159.232421,285.507678 C159.506871,285.688785 159.707854,285.960864 159.799056,286.275506 L160.945836,290.24401 C161.157796,290.975951 160.728809,291.737937 159.988215,291.948255 C159.860701,291.983308 159.731498,292 159.605673,292" id="Fill-75" fill="#222222"></path>
                    <path d="M201.60306,291 C201.061972,291 200.546286,290.688782 200.319351,290.165635 L198.809552,286.693008 L188.953101,282.377673 C188.564432,282.206629 188.274835,281.871214 188.168988,281.464878 L170.045481,212.723224 C169.850723,211.98648 170.299514,211.234717 171.046368,211.044482 C171.797457,210.853413 172.556167,211.295626 172.749231,212.030702 L190.702537,280.130729 L200.44552,284.396836 C200.766447,284.538678 201.022173,284.794828 201.161891,285.113556 L202.88677,289.081795 C203.190762,289.780993 202.861367,290.589492 202.153464,290.889029 C201.973101,290.964122 201.78681,291 201.60306,291" id="Fill-77" fill="#222222"></path>
                    <path d="M133.626386,286 C132.959163,286 132.3742,285.509597 132.271997,284.827369 L123.413629,225.080735 C117.647921,225.092412 92.56763,225.140785 86.9556407,225.140785 C73.7507644,225.140785 73.0079278,211.573794 73.0012805,211.437015 C72.9688749,210.67639 73.5554997,210.034195 74.311631,210.001668 C74.3315729,210 74.3515148,210 74.3722876,210 C75.1001678,210 75.7067346,210.574639 75.7408021,211.312746 C75.7615749,211.763951 76.3947309,222.378513 86.9556407,222.378513 C93.306312,222.378513 124.591865,222.305119 124.591865,222.305119 L124.595188,222.305119 C125.273214,222.305119 125.850698,222.814705 125.951239,223.489427 L134.98493,284.417032 C135.096272,285.167649 134.578613,285.871561 133.82996,285.982486 C133.761825,285.993328 133.694521,286 133.626386,286" id="Fill-79" fill="#222222"></path>
                    <path d="M115.615837,235 L80.7439843,235 C80.7196419,235 80.6952994,235 80.6717963,234.998322 C80.4946838,234.988255 63,233.815396 63,211.383436 C63,210.619148 63.6203134,210 64.3850028,210 C65.1496922,210 65.7700056,210.619148 65.7700056,211.383436 C65.7700056,230.856405 79.8122552,232.165173 80.7876329,232.23229 L115.615837,232.23229 C116.380526,232.23229 117,232.851438 117,233.615725 C117,234.380852 116.380526,235 115.615837,235" id="Fill-81" fill="#222222"></path>
                    <path d="M118.598417,294 C117.902388,294 117.299615,293.487402 117.212294,292.786657 L110.010385,234.547028 C109.917129,233.78942 110.462253,233.102054 111.230344,233.010071 C111.987413,232.918924 112.693615,233.456608 112.787719,234.212543 L119.989628,292.453009 C120.082884,293.20978 119.536912,293.897146 118.770517,293.989965 C118.712868,293.996655 118.655219,294 118.598417,294" id="Fill-83" fill="#222222"></path>
                    <path d="M73.3087638,294 C73.2675552,294 73.2255542,293.998324 73.1827606,293.993294 C72.4639882,293.919532 71.9377865,293.245614 72.0059391,292.483684 L77.3899966,233.250982 C77.4597341,232.491566 78.0834099,231.929968 78.8172394,232.007083 C79.5360118,232.079169 80.0622135,232.755601 79.9940609,233.515017 L74.6100034,292.749396 C74.5450207,293.464386 73.975233,294 73.3087638,294" id="Fill-85" fill="#222222"></path>
                    <path d="M172.616237,292 C172.00513,292 171.445997,291.595367 171.280856,290.980091 L155.047543,230.730546 C154.849708,229.997044 155.287291,229.244393 156.025817,229.047904 C156.763504,228.848918 157.520472,229.28852 157.719144,230.020356 L173.952457,290.269902 C174.150292,291.003403 173.712709,291.756054 172.974183,291.952543 C172.854309,291.983348 172.734435,292 172.616237,292" id="Fill-87" fill="#222222"></path>
                    <path d="M212.380815,155 C211.729892,155 211.150176,154.522777 211.024515,153.83893 C210.882099,153.064307 211.37469,152.318213 212.125305,152.172107 L233.360324,148.024069 C234.112614,147.881421 234.83307,148.387174 234.975486,149.160933 C235.117902,149.934691 234.625311,150.680785 233.873859,150.826891 L212.639677,154.974928 C212.552552,154.991355 212.466265,155 212.380815,155" id="Fill-89" fill="#0A51A1"></path>
                    <path d="M212.380815,165 C211.729892,165 211.150176,164.522752 211.024515,163.838004 C210.882099,163.064205 211.37469,162.318072 212.125305,162.171958 L233.360324,158.024567 C234.112614,157.880182 234.83307,158.386826 234.975486,159.160625 C235.117902,159.935289 234.625311,160.681422 233.873859,160.827536 L212.639677,164.974927 C212.552552,164.991354 212.466265,165 212.380815,165" id="Fill-91" fill="#0A51A1"></path>
                    <path d="M211.338353,136.844091 L211.338353,142.025433 L233.535848,138.951741 C233.666357,136.040177 234.609205,128.886431 240.960668,124.147788 C240.988276,124.127628 240.988276,124.108307 241.016721,124.089826 C252.705689,116.647948 257.246751,108.402155 257.246751,94.6810084 C257.246751,75.9826489 242.102627,60.7712785 223.496654,60.7712785 C204.883988,60.7712785 189.737354,75.9826489 189.737354,94.6810084 C189.737354,105.900528 194.796271,116.134686 203.086972,122.056099 C211.596862,128.703303 211.338353,135.893171 211.338353,136.844091 M209.740448,145 C209.408318,145 209.194148,144.880715 208.943169,144.658945 C208.641993,144.396014 208.578411,144.014638 208.578411,143.614781 L208.578411,136.779408 C208.578411,136.725646 208.472163,136.671884 208.478856,136.618962 C208.503117,136.370311 208.980816,130.214528 201.382819,124.279674 C192.413635,117.8744 187,106.795166 187,94.6810084 C187,74.4546236 203.368069,58 223.503346,58 C243.632767,58 260,74.4546236 260,94.6810084 C260,109.288393 254.931044,118.484266 242.516743,126.402445 C235.810562,131.44014 236.173646,140.000106 236.176156,140.08663 C236.215476,140.805701 235.695948,141.437408 234.985675,141.534852 L209.927846,144.987399 C209.865938,144.9958 209.802356,145 209.740448,145" id="Fill-93" fill="#EBBD00"></path>
                    <path d="M161.906104,53.5004152 L167.50083,59.0945636 L173.094727,53.5004152 L167.50083,47.9062668 L161.906104,53.5004152 Z M167.50083,62 L159,53.5004152 L167.50083,45 L176,53.5004152 L167.50083,62 Z" id="Fill-95" fill="#0A51A1"></path>
                    <path d="M378.032652,94.9975787 C377.462858,94.9975787 377.000005,94.5770783 377.000005,94.0258273 C376.998334,93.4745763 377.461187,93.0209847 378.032652,93.0201776 L388.965677,93 L388.967348,93 C389.537142,93 389.999995,93.4656981 389.999995,94.0169492 C390.001666,94.5682002 389.537978,94.9991929 388.969019,95 L378.034323,94.9975787 L378.032652,94.9975787 Z" id="Fill-97" fill="#222222"></path>
                    <path d="M383.005625,101 C382.457835,101 382.012856,100.540513 382.012856,99.9748628 L382.000004,89.0740717 C381.998398,88.5067628 382.44418,88 382.991167,88 L382.992773,88 C383.54217,88 383.986345,88.5059334 383.987952,89.0715835 L384,99.9483221 C384,100.515631 383.556627,101 383.007231,101 L383.005625,101 Z" id="Fill-99" fill="#222222"></path>
                    <path d="M268.032652,56 C267.462858,56 267.000005,55.4515366 267.000005,54.9141056 C266.998334,54.3743105 267.461187,54.000788 268.030981,54 L278.965677,54.0496454 L278.967348,54.0496454 C279.537142,54.0496454 279.999995,54.3664303 279.999995,54.9038613 C280.001666,55.4428684 279.537978,55.9330181 278.967348,55.9338061 L268.034323,56 L268.032652,56 Z" id="Fill-101" fill="#0A51A1"></path>
                    <path d="M273.007227,61 C272.45783,61 272.014458,60.3953681 272.012851,59.829718 L272,49.001914 C272,48.4346051 272.444176,48 272.992769,48 L272.994375,48 C273.543772,48 273.987947,48.3599592 273.987947,48.9264387 L273.999996,59.8769937 C274.001602,60.4434733 273.556623,61 273.008833,61 L273.007227,61 Z" id="Fill-103" fill="#0A51A1"></path>
                    <path d="M149.274692,107 L130.400976,107 C129.627087,107 129,106.368466 129,105.58889 C129,104.808458 129.627087,104.176924 130.400976,104.176924 L149.274692,104.176924 C153.509865,104.176924 154.200594,103.314341 154.200594,98.0310205 L154.200594,96.4111103 C154.200594,95.6315339 154.826833,95 155.599873,95 C156.372913,95 157,95.6315339 157,96.4111103 L157,98.0310205 C157,103.980104 155.805225,107 149.274692,107" id="Fill-105" fill="#222222"></path>
                    <path d="M309.601527,110 L290.627955,110 C283.547339,110 283,106.410252 283,101.339034 L283,92.3572604 C283,91.6078881 283.627106,91 284.401018,91 C285.173233,91 285.799491,91.6078881 285.799491,92.3572604 L285.799491,101.339034 C285.799491,106.507317 286.43084,107.285479 290.627955,107.285479 L309.601527,107.285479 C310.373742,107.285479 311,107.893367 311,108.64274 C311,109.392112 310.373742,110 309.601527,110" id="Fill-107" fill="#0A51A1"></path>
                    <path d="M186.59983,160 L181.683962,160 C174.566008,160 174,156.025456 174,150.829868 L174,147.400085 C174,146.627068 174.626258,146 175.399321,146 C176.172385,146 176.800339,146.627068 176.800339,147.400085 L176.800339,150.829868 C176.800339,156.247773 177.530125,157.19983 181.683962,157.19983 L186.59983,157.19983 C187.373742,157.19983 188,157.826899 188,158.599915 C188,159.372932 187.373742,160 186.59983,160" id="Fill-109" fill="#0A51A1"></path>
                    <path d="M175.608586,152 C174.840356,152 174.218015,151.372932 174.218015,150.599915 L174.218015,147.758167 C174.218015,142.118795 173.80818,140.80017 169.778981,140.80017 L146.392258,140.80017 C145.623185,140.80017 145,140.173101 145,139.400085 C145,138.627068 145.623185,138 146.392258,138 L169.778981,138 C177,138 177,142.960543 177,147.758167 L177,150.599915 C177,151.372932 176.376815,152 175.608586,152" id="Fill-111" fill="#0A51A1"></path>
                    <path d="M43.6398681,126 L29.3601319,126 C28.6091742,126 28,125.328888 28,124.500455 C28,123.671112 28.6091742,123 29.3601319,123 L43.6398681,123 C44.3908258,123 45,123.671112 45,124.500455 C45,125.328888 44.3908258,126 43.6398681,126" id="Fill-113" fill="#0A51A1"></path>
                    <path d="M408.592466,135 L392.407534,135 C391.629551,135 391,134.327978 391,133.499545 C391,132.671112 391.629551,132 392.407534,132 L408.592466,132 C409.370449,132 410,132.671112 410,133.499545 C410,134.327978 409.370449,135 408.592466,135" id="Fill-115" fill="#0A51A1"></path>
                    <path d="M432.627288,121 L400.37188,121 C399.613977,121 399,120.328182 399,119.5 C399,118.671818 399.613977,118 400.37188,118 L432.627288,118 C433.386023,118 434,118.671818 434,119.5 C434,120.328182 433.386023,121 432.627288,121" id="Fill-117" fill="#222222"></path>
                    <path d="M33.6220738,139 L5.37792624,139 C4.61714393,139 4,138.328888 4,137.500455 C4,136.671112 4.61714393,136 5.37792624,136 L33.6220738,136 C34.3828561,136 35,136.671112 35,137.500455 C35,138.328888 34.3828561,139 33.6220738,139" id="Fill-119" fill="#222222"></path>
                    <path d="M155.383948,101 C154.619378,101 154,100.369595 154,99.5924662 L154,90.6712612 C154,84.5932744 156.707469,82 163.053153,82 L179.615212,82 C180.380622,82 181,82.6304045 181,83.4075338 C181,84.184663 180.380622,84.8142145 179.615212,84.8142145 L163.053153,84.8142145 C158.178701,84.8142145 156.768736,86.1279127 156.768736,90.6712612 L156.768736,99.5924662 C156.768736,100.369595 156.148519,101 155.383948,101" id="Fill-121" fill="#222222"></path>
                    <path d="M284.601471,101 C283.827528,101 283.201245,100.393982 283.201245,99.6469141 L283.201245,87.0763362 C283.201245,82.0748387 282.003839,80.7053517 277.640225,80.7053517 L266.399378,80.7053517 C265.627132,80.7053517 265,80.1001533 265,79.3530859 C265,78.6051984 265.627132,78 266.399378,78 L277.640225,78 C284.987594,78 286,82.3618569 286,87.0763362 L286,99.6469141 C286,100.393982 285.373717,101 284.601471,101" id="Fill-123" fill="#0A51A1"></path>
                    <path d="M219.49909,47 C218.671316,47 218,46.3808183 218,45.6175238 L218,1.38247616 C218,0.619181745 218.671316,0 219.49909,0 C220.328684,0 221,0.619181745 221,1.38247616 L221,45.6175238 C221,46.3808183 220.328684,47 219.49909,47" id="Fill-125" fill="#0A51A1"></path>
                    <path d="M201.5,45 C200.670909,45 200,44.3695955 200,43.5924662 L200,27.4075338 C200,26.6304045 200.670909,26 201.5,26 C202.327273,26 203,26.6304045 203,27.4075338 L203,43.5924662 C203,44.3695955 202.327273,45 201.5,45" id="Fill-130" fill="#3A4A53"></path>
                    <path d="M241.49909,54 C240.671316,54 240,53.3676104 240,52.5880339 L240,43.4111103 C240,42.6315339 240.671316,42 241.49909,42 C242.328684,42 243,42.6315339 243,43.4111103 L243,52.5880339 C243,53.3676104 242.328684,54 241.49909,54" id="Fill-132" fill="#3A4A53"></path>
                    <path d="M233.774346,102.35606 C231.740945,107.942849 227.187644,110 223.033437,110 C217.127008,110 211.415179,106.095577 210.941049,96.7426192 L210.33746,96.7426192 C209.479902,96.7426192 209,96.2037622 209,95.3584147 C209,94.4647616 209.477429,93.9941987 210.33746,93.9941987 L210.953417,93.9941987 C211.507532,84.9868754 217.174009,81 223.033437,81 C227.308856,81 231.889369,83.1196152 233.898033,88.8996267 C234.203125,89.7666284 233.806505,90.4004308 232.936578,90.571166 L232.563871,90.6486215 C231.759086,90.8076967 231.214867,90.5095348 230.927915,89.7016657 C229.583858,85.9246697 226.710215,83.9566341 223.033437,83.9566341 C217.96725,83.9566341 214.49579,87.6886559 214.034028,93.9941987 L221.695976,93.9941987 C222.59064,93.9941987 223.033437,94.4647616 223.033437,95.3584147 C223.033437,96.2037622 222.59064,96.7426192 221.695976,96.7426192 L214.018362,96.7426192 C214.408385,103.263871 217.8213,107.022545 223.033437,107.022545 C226.7869,107.022545 229.678684,104.918754 231.021916,101.050144 C231.330307,100.244773 231.815157,99.901637 232.620766,100.060712 L232.975333,100.138168 C233.841137,100.307237 234.255073,101.15425 233.774346,102.35606" id="Fill-134" fill="#EBBD00"></path>
                </g>
            </g>
        </g>
    </g>
</svg>