<?xml version="1.0" encoding="UTF-8"?>
<svg width="104px" height="98px" viewBox="0 0 104 98" version="1.1" xmlns="http://www.w3.org/2000/svg" xmlns:xlink="http://www.w3.org/1999/xlink">
    <!-- Generator: Sketch 54.1 (76490) - https://sketchapp.com -->
    <title>Group 14</title>
    <desc>Created with Sketch.</desc>
    <g id="Desktop" stroke="none" stroke-width="1" fill="none" fill-rule="evenodd">
        <g id="01a-Home" transform="translate(-969.000000, -729.000000)" stroke="#222222">
            <g id="Keuze" transform="translate(136.000000, 648.000000)">
                <g id="Lening-button" transform="translate(600.000000, 0.000000)">
                    <g id="Group-14" transform="translate(233.000000, 83.000000)">
                        <g id="Group-11" stroke-width="2.5">
                            <polyline id="Stroke-1" stroke-linejoin="round" points="59.8695652 89.9898453 59.8695652 26.3384913 77.6086957 26.3384913 77.6086957 41.7026112"></polyline>
                            <polyline id="Stroke-3" stroke-linejoin="round" points="33.2608696 89.9898453 33.2608696 0 51 0 51 89.9898453"></polyline>
                            <polyline id="Stroke-5" stroke-linejoin="round" points="6.65217391 89.9898453 6.65217391 43.8974855 24.3913043 43.8974855 24.3913043 89.9898453"></polyline>
                            <path d="M0,94.3795938 L99.7826087,94.3795938" id="Stroke-7" stroke-linejoin="round"></path>
                            <path d="M66.2554304,48.8616326 C69.6458217,47.092564 73.5085174,46.0917013 77.6084739,46.0917013 C91.0791261,46.0917013 101.999778,56.9014571 101.999778,70.2353183 C101.999778,77.6474088 98.6271261,84.2803188 93.3142565,88.7073802" id="Stroke-9"></path>
                        </g>
                        <path d="M77.9664357,80.7708073 C80.8764957,80.7708073 84.0670856,79.3443972 85.4916055,75.4690873 C85.8280256,74.6350573 85.5380455,74.0478073 84.9318956,73.9306274 L84.6829555,73.8766286 C84.1186557,73.7667384 83.7789957,74.0046083 83.5632655,74.5629681 C82.6223153,77.246768 80.5959653,78.705578 77.9664353,78.705578 C74.3146853,78.705578 71.9232951,76.0987279 71.6505949,71.575148 L77.0292651,71.575148 C77.655665,71.575148 77.9664349,71.201738 77.9664349,70.6150281 C77.9664349,69.995648 77.655665,69.6692181 77.0292651,69.6692181 L71.6611249,69.6692181 C71.9848551,65.295488 74.4170151,62.7067279 77.9664353,62.7067279 C80.5419653,62.7067279 82.5556253,64.0718478 83.4968453,66.6913879 C83.6982655,67.252178 84.0792355,67.4587279 84.6432655,67.3485678 L84.9048956,67.2945678 C85.5140155,67.1760378 85.7913056,66.7367477 85.5785455,66.1354576 C84.1704957,62.1259576 80.9615455,60.6558077 77.9664357,60.6558077 C73.8616257,60.6558077 69.8915459,63.4211476 69.5030159,69.6692177 L69.0718259,69.6692177 C68.4691857,69.6692177 68.1346557,69.9956476 68.1346557,70.6150277 C68.1346557,71.2017376 68.4705358,71.5751476 69.0718259,71.5751476 L69.4943757,71.5751476 C69.8267457,78.0629775 73.8281456,80.7708073 77.9664357,80.7708073 Z" id="€" stroke-width="0.5" fill="#222222" fill-rule="nonzero"></path>
                    </g>
                </g>
            </g>
        </g>
    </g>
</svg>