<?xml version="1.0" encoding="UTF-8"?>
<svg width="208px" height="55px" viewBox="0 0 208 55" version="1.1" xmlns="http://www.w3.org/2000/svg" xmlns:xlink="http://www.w3.org/1999/xlink">
    <!-- Generator: Sketch 54.1 (76490) - https://sketchapp.com -->
    <title>Group 26</title>
    <desc>Created with Sketch.</desc>
    <g id="Symbols" stroke="none" stroke-width="1" fill="none" fill-rule="evenodd">
        <g id="objects/logo/logo-white">
            <g id="Group-26">
                <g>
                    <path d="M24.463198,43.1529103 C21.6982055,45.8793263 18.1272782,47.1466145 14.2477393,47.1466145 C4.26269674,47.1466145 0.0380551378,40.2727098 -4.51326259e-16,33.2825544 C-0.0385764411,26.2548652 4.53221053,19.1114466 14.2477393,19.1114466 C17.8963409,19.1114466 21.3525815,20.4944642 24.1180952,23.2208802 L20.7379649,26.4852812 C18.9723108,24.7571609 16.5904762,23.9507048 14.2477393,23.9507048 C7.75751378,23.9507048 4.95394486,28.7894416 4.9925213,33.2825544 C5.03161905,37.737612 7.60372932,42.3845093 14.2477393,42.3845093 C16.5904762,42.3845093 19.2402607,41.42479 21.0069574,39.6580932 L24.463198,43.1529103 Z" id="Fill-1" fill="#FFFFFF"></path>
                    <path d="M30.1105283,27.5990456 L30.4561524,29.787998 C31.9152802,27.4452612 33.8748591,27.0996371 35.7942977,27.0996371 C37.7528341,27.0996371 39.6352602,27.8680381 40.6721323,28.904389 L38.5592902,32.9757674 C37.5990496,32.16879 36.7159619,31.7470556 35.1807238,31.7470556 C32.7227789,31.7470556 30.4561524,33.0518777 30.4561524,36.547216 L30.4561524,46.5322586 L25.7712,46.5322586 L25.7712,27.5990456 L30.1105283,27.5990456 Z" id="Fill-4" fill="#FFFFFF"></path>
                    <path d="M46.432794,38.7360642 C46.7403629,41.078801 48.7755308,42.7683449 52.077987,42.7683449 C53.8071499,42.7683449 56.0722125,42.1156732 57.1481825,41.0021694 L60.143591,43.9595228 C58.1464782,46.0327459 54.8815559,47.0315629 52.0018767,47.0315629 C45.4725534,47.0315629 41.5945784,42.9992822 41.5945784,36.9313123 C41.5945784,31.17039 45.5106085,27.0229013 51.6557313,27.0229013 C57.993215,27.0229013 61.9488642,30.9399739 61.217997,38.7360642 L46.432794,38.7360642 Z M56.7249885,34.8573594 C56.4179409,32.3994145 54.4985023,31.1707028 51.8090987,31.1707028 C49.2745223,31.1707028 47.2007779,32.3994145 46.5095298,34.8573594 L56.7249885,34.8573594 Z" id="Combined-Shape" fill="#FFFFFF"></path>
                    <path d="M84.4925193,19.6876431 L84.4925193,46.5321544 L80.1156571,46.5321544 L79.8080882,43.9204251 C78.3479178,46.1865303 76.0062236,46.9549313 73.7020632,46.9549313 C68.1324591,46.9549313 63.946394,43.2677534 63.946394,37.0465203 C63.946394,30.5177183 68.0563489,27.1381093 73.5858125,27.1381093 C75.5829253,27.1381093 78.6935419,28.2135579 79.8080882,30.1720942 L79.8080882,19.6876431 L84.4925193,19.6876431 Z M68.6319719,37.046416 C68.6319719,40.3493935 71.0127639,42.6149774 74.0086937,42.6149774 C76.9655258,42.6149774 79.5011449,40.4646015 79.5011449,37.046416 C79.5011449,33.7434386 76.9655258,31.5164311 74.0086937,31.5164311 C71.0127639,31.5164311 68.6319719,33.6282306 68.6319719,37.046416 Z" id="Combined-Shape" fill="#FFFFFF"></path>
                    <path d="M93.6733474,22.260796 C93.6733474,25.9093975 88.1438837,25.9093975 88.1438837,22.260796 C88.1438837,18.6121945 93.6733474,18.6121945 93.6733474,22.260796" id="Fill-14" fill="#67C6DD"></path>
                    <polygon id="Fill-16" fill="#FFFFFF" points="88.5652531 46.5320501 93.2507268 46.5320501 93.2507268 27.5222055 88.5652531 27.5222055"></polygon>
                    <path d="M109.841412,32.6300912 C108.498013,31.3622817 106.962254,30.9400261 105.15698,30.9400261 C102.92893,30.9400261 101.70074,31.6312742 101.70074,32.8219308 C101.70074,34.0511639 102.814244,34.742412 105.233091,34.8956752 C108.805582,35.1260912 113.336229,35.9325474 113.336229,40.9636451 C113.336229,44.305199 110.610334,47.1848782 105.194514,47.1848782 C102.199627,47.1848782 99.2042185,46.685991 96.4387048,43.8052692 L98.7428652,40.4642366 C100.086785,41.9619409 103.159868,43.0759659 105.271146,43.1140211 C107.037843,43.1531188 108.689331,42.2309333 108.689331,40.8484371 C108.689331,39.5425724 107.614925,39.0051088 104.925522,38.8513243 C101.355116,38.5823318 97.0913764,37.2769885 97.0913764,32.9757153 C97.0913764,28.5972892 101.623066,27.0610085 105.079306,27.0610085 C108.03666,27.0610085 110.26471,27.6375699 112.453662,29.5575298 L109.841412,32.6300912 Z" id="Fill-18" fill="#FFFFFF"></path>
                    <path d="M121.018362,19.6494316 L121.018362,30.1719378 C122.707906,27.9829855 124.782693,27.3297925 126.933069,27.3297925 C132.308748,27.3297925 134.691104,30.978394 134.691104,36.5469554 L134.691104,46.531998 L130.004587,46.531998 L130.004587,36.5855318 C130.004587,33.1287699 128.199836,31.6701634 125.703314,31.6701634 C122.939364,31.6701634 121.018362,34.0123789 121.018362,36.8545243 L121.018362,46.531998 L116.33341,46.531998 L116.33341,19.6494316 L121.018362,19.6494316 Z" id="Fill-19" fill="#FFFFFF"></path>
                    <path d="M157.465279,37.0845754 C157.465279,42.5379288 153.740046,46.9549313 147.594923,46.9549313 C141.450322,46.9549313 137.763665,42.5379288 137.763665,37.0845754 C137.763665,31.6697985 141.527996,27.2147409 147.556868,27.2147409 C153.587304,27.2147409 157.465279,31.6697985 157.465279,37.0845754 Z M142.449295,37.0845754 C142.449295,39.9647759 144.177416,42.6536581 147.59508,42.6536581 C151.013786,42.6536581 152.741385,39.9647759 152.741385,37.0845754 C152.741385,34.2429514 150.744273,31.4774376 147.59508,31.4774376 C144.216513,31.4774376 142.449295,34.2429514 142.449295,37.0845754 Z" id="Combined-Shape" fill="#FFFFFF"></path>
                    <path d="M160.692407,54.4434005 L160.692407,27.5988892 L165.070312,27.5988892 L165.377881,30.2106185 C166.837009,28.0982977 169.371585,27.1766336 171.522482,27.1766336 C177.360557,27.1766336 181.239054,31.5164832 181.239054,37.0845233 C181.239054,42.6150296 177.744237,46.9929343 171.676267,46.9929343 C169.679154,46.9929343 166.721801,46.3783178 165.377881,44.3050947 L165.377881,54.4434005 L160.692407,54.4434005 Z M176.553424,37.0845754 C176.553424,34.1277434 174.556311,31.7083749 171.177223,31.7083749 C167.797093,31.7083749 165.800501,34.1277434 165.800501,37.0845754 C165.800501,40.0419288 167.989454,42.4612972 171.177223,42.4612972 C174.364992,42.4612972 176.553424,40.0419288 176.553424,37.0845754 Z" id="Combined-Shape" fill="#FFFFFF"></path>
                    <path d="M206.299352,32.4953343 L202.998981,32.4953343 C202.214941,32.4953343 201.568004,31.8953143 201.522129,31.1107529 C200.760505,17.7017905 190.074831,7.01559499 176.665869,6.23103358 C175.881307,6.1851589 175.281287,5.53874286 175.281287,4.7771188 L175.281287,1.47674787 C175.281287,1.06126917 175.44237,0.692186466 175.742641,0.415374436 C176.019453,0.138562406 176.389057,-0.000104260652 176.758139,-0.000104260652 L176.827473,-0.000104260652 C184.905067,0.415374436 192.497849,3.80801604 198.221758,9.55486316 C203.968606,15.2777303 207.361247,22.8710336 207.776726,30.9491489 C207.799663,31.3411689 207.661518,31.7337103 207.361247,32.033981 C207.084435,32.3337303 206.714831,32.4953343 206.299352,32.4953343 Z" id="Fill-24" fill="#FFFFFF"></path>
                    <path d="M195.567751,32.0102617 C195.290939,32.3334697 194.898398,32.4950737 194.482919,32.4950737 L191.36709,32.4950737 C190.605466,32.4950737 189.981987,31.9174697 189.913175,31.1568882 C189.243822,24.117209 183.658578,18.5324872 176.619421,17.8631338 C175.857796,17.7932792 175.281235,17.1703218 175.281235,16.4086977 L175.281235,13.2933895 C175.281235,12.8773895 175.442839,12.4853694 175.766047,12.2080361 C176.019401,11.955204 176.389005,11.816016 176.758087,11.816016 L176.873295,11.816016 C181.789185,12.2080361 186.428263,14.3542416 189.913175,17.8631338 C193.421025,21.3475248 195.567751,25.9866025 195.959771,30.9024922 C195.98323,31.3174496 195.844563,31.7105123 195.567751,32.0102617" id="Fill-25" fill="#67C6DD"></path>
                </g>
            </g>
        </g>
    </g>
</svg>