<?xml version="1.0" encoding="UTF-8"?>
<svg width="40px" height="34px" viewBox="0 0 40 34" version="1.1" xmlns="http://www.w3.org/2000/svg" xmlns:xlink="http://www.w3.org/1999/xlink">
    <!-- Generator: Sketch 54.1 (76490) - https://sketchapp.com -->
    <title>app-window-mail</title>
    <desc>Created with Sketch.</desc>
    <g id="Desktop" stroke="none" stroke-width="1" fill="none" fill-rule="evenodd" opacity="0.5" stroke-linecap="round" stroke-linejoin="round">
        <g id="02BA-Simulator---woonkrediet" transform="translate(-820.000000, -1975.000000)" stroke="#67C6DD" stroke-width="1.5">
            <g id="Contact" transform="translate(0.000000, 1840.000000)">
                <g id="app-window-mail" transform="translate(821.000000, 136.000000)">
                    <rect id="Rectangle" x="0" y="0.00660869565" width="38" height="32" rx="2"></rect>
                    <path d="M5.7826087,3.724 C6.01072631,3.724 6.19565217,3.90892586 6.19565217,4.13704348 C6.19565217,4.36516109 6.01072631,4.55008696 5.7826087,4.55008696 C5.55449108,4.55008696 5.36956522,4.36516109 5.36956522,4.13704348 C5.36956522,3.90892586 5.55449108,3.724 5.7826087,3.724" id="Path"></path>
                    <path d="M10.7391304,3.724 C10.967248,3.724 11.1521739,3.90892586 11.1521739,4.13704348 C11.1521739,4.36516109 10.967248,4.55008696 10.7391304,4.55008696 C10.5110128,4.55008696 10.326087,4.36516109 10.326087,4.13704348 C10.326087,3.90892586 10.5110128,3.724 10.7391304,3.724" id="Path"></path>
                    <path d="M15.6956522,3.724 C15.9237698,3.724 16.1086957,3.90892586 16.1086957,4.13704348 C16.1086957,4.36516109 15.9237698,4.55008696 15.6956522,4.55008696 C15.4675346,4.55008696 15.2826087,4.36516109 15.2826087,4.13704348 C15.2826087,3.90892586 15.4675346,3.724 15.6956522,3.724" id="Path"></path>
                    <rect id="Rectangle" x="11.5652174" y="13.8761739" width="16.5217391" height="12" rx="1"></rect>
                    <path d="M11.5652174,16.3478261 L18.173913,20.1478261 C19.1937596,20.7342831 20.4485013,20.7342831 21.4683478,20.1478261 L28.0770435,16.3478261" id="Path"></path>
                    <path d="M0,9 L38,9" id="Path"></path>
                </g>
            </g>
        </g>
    </g>
</svg>