<?xml version="1.0" encoding="UTF-8"?>
<svg width="19px" height="12px" viewBox="0 0 19 12" version="1.1" xmlns="http://www.w3.org/2000/svg" xmlns:xlink="http://www.w3.org/1999/xlink">
    <!-- Generator: Sketch 54.1 (76490) - https://sketchapp.com -->
    <title>envelope</title>
    <desc>Created with Sketch.</desc>
    <g id="Desktop" stroke="none" stroke-width="1" fill="none" fill-rule="evenodd">
        <g id="07A-Kantoren" transform="translate(-152.000000, -1296.000000)" fill="#0A51A1" fill-rule="nonzero">
            <g id="KANTOOR-GRID" transform="translate(136.000000, 664.000000)">
                <g id="KANTOOR-ITEM-Copy-8" transform="translate(0.000000, 472.000000)">
                    <g id="envelope" transform="translate(16.000000, 160.000000)">
                        <path d="M8.79388995,8.02973502 C9.1837569,8.40034474 9.81464737,8.40034474 10.2045143,8.02973502 L17.9326295,0.661792375 C18.0396409,0.560139853 18.0772497,0.409580122 18.029784,0.272853164 C17.9823183,0.136126206 17.8579208,0.0366879201 17.7084296,0.0159753906 C17.6326123,0.00532476514 17.5560783,-1.42906077e-05 17.4794425,1.11892691e-06 L1.52215326,1.11892691e-06 C1.44498481,-8.88796185e-05 1.3679146,0.00525037558 1.29157043,0.0159753906 C1.14207916,0.0366879201 1.01768173,0.136126206 0.970216006,0.272853164 C0.92275028,0.409580122 0.960359132,0.560139853 1.06737052,0.661792375 L8.79388995,8.02973502 Z" id="Path"></path>
                        <path d="M18.9113324,0.934388621 C18.8571995,0.911710866 18.7945295,0.923767305 18.752999,0.964848732 L13.844666,5.80722525 C13.7675748,5.88369567 13.7675748,6.00723892 13.844666,6.08370933 L17.8370407,10.0224359 C17.9914586,10.1694367 18.0534635,10.3871989 17.9992238,10.5920261 C17.9449842,10.7968533 17.782941,10.9568698 17.5753752,11.0105737 C17.3678093,11.0642776 17.1470227,11.0033113 16.9978741,10.8511071 L13.0054993,6.91238054 C12.9683685,6.87565592 12.9179518,6.85501643 12.8653743,6.85501643 C12.8127969,6.85501643 12.7623802,6.87565592 12.7252493,6.91238054 L11.0397911,8.57519015 C10.1896858,9.4134033 8.81189659,9.4134033 7.96179126,8.57519015 L6.27474968,6.9139426 C6.19723768,6.83788739 6.07201169,6.83788739 5.99449969,6.9139426 L2.0021249,10.8526692 C1.76904426,11.0745543 1.3987184,11.0712084 1.16979593,10.8451491 C0.940873462,10.6190898 0.937831202,10.2537372 1.16295827,10.023998 L5.15533307,6.08527139 C5.2324242,6.00880097 5.2324242,5.88525772 5.15533307,5.80878731 L0.246999987,0.966410789 C0.205688376,0.924926083 0.142750275,0.912818073 0.0886666621,0.935950678 C0.035502453,0.957800719 0.000634345428,1.00878578 0,1.0656014 L0,10.4379431 C1.23085801e-16,11.3006433 0.708882443,12 1.58333325,12 L17.4166658,12 C18.2911166,12 18.999999,11.3006433 18.999999,10.4379431 L18.999999,1.0656014 C19.0002138,1.00815253 18.965167,0.956288778 18.9113324,0.934388621 Z" id="Path"></path>
                    </g>
                </g>
            </g>
        </g>
    </g>
</svg>