<?xml version="1.0" encoding="UTF-8"?>
<svg width="19px" height="16px" viewBox="0 0 19 16" version="1.1" xmlns="http://www.w3.org/2000/svg" xmlns:xlink="http://www.w3.org/1999/xlink">
    <!-- Generator: Sketch 54.1 (76490) - https://sketchapp.com -->
    <title>phone-incoming-call</title>
    <desc>Created with Sketch.</desc>
    <g id="Desktop" stroke="none" stroke-width="1" fill="none" fill-rule="evenodd">
        <g id="07A-Kantoren" transform="translate(-152.000000, -788.000000)" fill="#0A51A1" fill-rule="nonzero">
            <g id="KANTOOR-GRID" transform="translate(136.000000, 664.000000)">
                <g id="KANTOOR-ITEM">
                    <g id="phone-incoming-call" transform="translate(16.000000, 124.000000)">
                        <path d="M16.7041667,9.4216 L16.7041667,9.4216 C11.9506226,8.438823 7.04937744,8.438823 2.29583333,9.4216 C0.988428891,9.71164747 0.0427845264,10.8616609 0,12.2136 L0,13.4136 C1.3386168e-16,14.5181695 0.886103099,15.4136 1.97916667,15.4136 L4.35416667,15.4136 C5.44723023,15.4136 6.33333333,14.5181695 6.33333333,13.4136 L6.33333333,12.9776 C8.44031071,12.788799 10.5596893,12.788799 12.6666667,12.9776 L12.6666667,13.4136 C12.6666667,14.5181695 13.5527698,15.4136 14.6458333,15.4136 L17.0208333,15.4136 C18.1138969,15.4136 19,14.5181695 19,13.4136 L19,12.2136 C18.9572155,10.8616609 18.0115711,9.71164747 16.7041667,9.4216 Z" id="Path"></path>
                        <path d="M9.10416667,6.4136 C9.65069845,6.4136 10.09375,5.96588475 10.09375,5.4136 L10.09375,1.5864 C10.09375,1.03411525 9.65069845,0.5864 9.10416667,0.5864 C8.55763488,0.5864 8.11458333,1.03411525 8.11458333,1.5864 L8.11458333,5.4136 C8.11458333,5.96588475 8.55763488,6.4136 9.10416667,6.4136 L9.10416667,6.4136 Z" id="Path"></path>
                        <path d="M12.7925417,7.68 C13.056656,7.6805004 13.3099193,7.57386324 13.4955417,7.384 L16.1405,4.6888 C16.525477,4.29645691 16.5228187,3.66302939 16.1345625,3.27400001 C15.7463063,2.88497064 15.119477,2.88765693 14.7345,3.28 L12.0895417,5.9776 C11.8082967,6.26430834 11.7252324,6.69378412 11.8789583,7.06640001 C12.0326842,7.43901591 12.393046,7.68168076 12.7925417,7.6816 L12.7925417,7.68 Z" id="Path"></path>
                        <path d="M4.71279167,7.3856 C5.09755004,7.77794309 5.72420215,7.78080846 6.11245833,7.392 C6.50071451,7.00319154 6.50355004,6.36994309 6.11879167,5.9776 L3.47383333,3.28 C3.08907496,2.88765693 2.46242285,2.88479156 2.07416668,3.27360001 C1.68591051,3.66240847 1.68307497,4.29565691 2.06783333,4.688 L4.71279167,7.3856 Z" id="Path"></path>
                    </g>
                </g>
            </g>
        </g>
    </g>
</svg>