<?xml version="1.0" encoding="UTF-8"?>
<svg width="42px" height="42px" viewBox="0 0 42 42" version="1.1" xmlns="http://www.w3.org/2000/svg" xmlns:xlink="http://www.w3.org/1999/xlink">
    <!-- Generator: Sketch 54.1 (76490) - https://sketchapp.com -->
    <title>phone-circle</title>
    <desc>Created with Sketch.</desc>
    <g id="Desktop" stroke="none" stroke-width="1" fill="none" fill-rule="evenodd" opacity="0.5" stroke-linecap="round" stroke-linejoin="round">
        <g id="02BA-Simulator---woonkrediet" transform="translate(-572.000000, -1971.000000)" stroke="#67C6DD" stroke-width="1.5">
            <g id="Contact" transform="translate(0.000000, 1840.000000)">
                <g id="phone-circle" transform="translate(573.000000, 132.000000)">
                    <path d="M16.9165217,14.8313043 C18.0138947,13.8366003 18.1032028,12.1428531 17.1165217,11.0382609 L14.4208696,8.34782609 C13.3169603,7.35920497 11.6216468,7.44859564 10.6278261,8.54782609 L8.98608696,10.1878261 C7.57895999,11.4993193 7.25918971,13.6066342 8.21391304,15.2765217 C12.4298821,21.9391732 18.0730007,27.5822919 24.7356522,31.7982609 C26.4048644,32.7518158 28.5106168,32.4328933 29.8226087,31.0278261 L31.4643478,29.386087 C32.5632695,28.391161 32.6518694,26.6953288 31.6626087,25.5913043 L28.9686957,22.8973913 C27.8651491,21.9104608 26.17198,21.9990027 25.1773913,23.0956522 L24.1773913,24.093913 C21.1352854,21.6427224 18.3662489,18.8707706 15.9182609,15.826087 L16.9165217,14.8313043 Z" id="Path"></path>
                    <path d="M30.4347826,30.4347826 C31.3043478,31.3043478 33.1478261,40 20,40 C10.8045366,39.9990669 2.79462149,33.7281338 0.586969932,24.8016103 C-1.62068163,15.8750868 2.54287893,6.59348648 10.6778791,2.30649228 C18.8128793,-1.98050192 28.8227942,-0.168060225 34.9381585,6.69917116 C41.0535228,13.5664025 41.6983054,23.7186238 36.5008696,31.3043478" id="Path"></path>
                </g>
            </g>
        </g>
    </g>
</svg>