<?xml version="1.0" encoding="UTF-8"?>
<svg width="114px" height="105px" viewBox="0 0 114 105" version="1.1" xmlns="http://www.w3.org/2000/svg" xmlns:xlink="http://www.w3.org/1999/xlink">
    <!-- Generator: Sketch 54.1 (76490) - https://sketchapp.com -->
    <title>Group</title>
    <desc>Created with Sketch.</desc>
    <g id="Desktop" stroke="none" stroke-width="1" fill="none" fill-rule="evenodd" stroke-linecap="round">
        <g id="01b-Home---active-items" transform="translate(-353.000000, -725.000000)" stroke="#222222" stroke-width="2.5">
            <g id="Keuze" transform="translate(136.000000, 648.000000)">
                <g id="NOT-ACTIVE">
                    <g id="Woonkrediet-button" transform="translate(0.000000, 0.000000)">
                        <g id="Group-37" transform="translate(219.000000, 79.000000)">
                            <g id="Group" transform="translate(0.000000, 0.046171)">
                                <path d="M90.1105652,101.338696 C104.135565,95.26 121.111435,82.2967391 98.6475217,74.5991304 C74.8014348,66.4256522 51.161,57.8863043 70.9801304,46.3386957" id="Stroke-1" stroke-linejoin="round"></path>
                                <path d="M45.4347826,101.060826 C62.5780435,95.0132174 85.9052174,86.0338696 71.2106522,76.3203913 C60.2441304,69.0723478 54.7058696,63.1084348 54.418913,57.4027826" id="Stroke-3" stroke-linejoin="round"></path>
                                <path d="M93.2608696,29.5995652 C93.2608696,36.1469565 87.9091304,41.556087 81.3043478,41.556087 C74.6995652,41.556087 69.3478261,36.1469565 69.3478261,29.5995652 C69.3478261,23.0521739 81.3043478,0.903913043 81.3043478,0.903913043 C81.3043478,0.903913043 93.2608696,23.0521739 93.2608696,29.5995652 Z" id="Stroke-5"></path>
                                <path d="M81.3043478,41.556087 L81.3043478,58.2952174" id="Stroke-7"></path>
                                <path d="M96.7894783,20.2108261 C98.7455652,16.0786522 100.433826,12.8599565 100.433826,12.8599565 C100.433826,12.8599565 109.999043,31.1008261 109.999043,36.4932174 C109.999043,41.8856087 105.716217,46.3382174 100.433826,46.3382174 C97.8679565,46.3382174 95.5388261,45.2860435 93.8194783,43.5858261" id="Stroke-9"></path>
                                <path d="M100.434783,46.3386957 L100.434783,58.2952174" id="Stroke-11"></path>
                                <polyline id="Stroke-13" stroke-linejoin="round" points="40.6521739 48.73 40.6521739 86.9908696 7.17391304 86.9908696 7.17391304 48.73"></polyline>
                                <polyline id="Stroke-15" stroke-linejoin="round" points="45.4347826 53.5126087 23.9130435 31.9908696 2.39130435 53.5126087"></polyline>
                                <polyline id="Stroke-17" stroke-linejoin="round" points="19.1304348 86.9908696 19.1304348 72.6430435 28.6956522 72.6430435 28.6956522 86.9908696"></polyline>
                                <path d="M11.9565217,31.9908696 L11.9565217,43.9473913" id="Stroke-19" stroke-linejoin="round"></path>
                                <path d="M57.3913043,22.4256522 L35.8695652,22.4256522 C34.9465217,17.6047826 31.0869565,15.9236957 26.7323913,16.9495652 C24.938913,13.86 21.6317391,11.9565217 17.8032609,11.9565217 C12.1095652,11.9565217 7.22413043,15.2517391 7.17391304,22.4256522 L1.42108547e-14,22.4256522" id="Stroke-21"></path>
                                <path d="M66.9565217,10.4691304 L59.8447826,10.4691304 C58.4602174,5.57413043 54.6054348,4.22304348 50.6454348,4.99304348 C48.8519565,1.90347826 45.5447826,6.75015599e-14 41.7163043,6.75015599e-14 C36.0226087,6.75015599e-14 31.1371739,3.29521739 31.0869565,10.4691304" id="Stroke-23"></path>
                                <path d="M14.3478261,53.5126087 L21.5217391,53.5126087" id="Stroke-25" stroke-linejoin="round"></path>
                                <path d="M26.3043478,53.5126087 L33.4782609,53.5126087" id="Stroke-27" stroke-linejoin="round"></path>
                                <path d="M14.3478261,63.0778261 L21.5217391,63.0778261" id="Stroke-29" stroke-linejoin="round"></path>
                                <path d="M26.3043478,63.0778261 L33.4782609,63.0778261" id="Stroke-31" stroke-linejoin="round"></path>
                                <path d="M-5.32907052e-15,86.9908696 L7.17391304,86.9908696" id="Stroke-33" stroke-linejoin="round"></path>
                                <path d="M40.6521739,86.9908696 L47.826087,86.9908696" id="Stroke-35" stroke-linejoin="round"></path>
                            </g>
                        </g>
                    </g>
                </g>
            </g>
        </g>
    </g>
</svg>