<?xml version="1.0" encoding="UTF-8"?>
<svg width="63px" height="16px" viewBox="0 0 63 16" version="1.1" xmlns="http://www.w3.org/2000/svg" xmlns:xlink="http://www.w3.org/1999/xlink">
    <!-- Generator: Sketch 60.1 (88133) - https://sketch.com -->
    <title>Normal arrow</title>
    <desc>Created with Sketch.</desc>
    <g id="Final" stroke="none" stroke-width="1" fill="none" fill-rule="evenodd">
        <g id="OnePager---Mitusbishi-Mobile" transform="translate(-259.000000, -4367.000000)" fill="#000000" fill-rule="nonzero">
            <g id="Onze-modellen" transform="translate(-218.000000, 3436.000000)">
                <g id="Group-Copy" transform="translate(519.500000, 939.000000) rotate(-180.000000) translate(-519.500000, -939.000000) translate(477.000000, 911.000000)">
                    <g id="Normal-arrow" transform="translate(53.500000, 27.500000) rotate(-180.000000) translate(-53.500000, -27.500000) translate(22.000000, 19.000000)">
                        <path d="M62.9913333,8 C62.9901431,7.54085135 62.7926484,7.10413071 62.4486667,6.8 L54.996,0.240666667 C54.5958565,-0.0868961366 54.0081554,-0.0386492373 53.6667914,0.349787089 C53.3254274,0.738223415 53.3530799,1.32725286 53.7293333,1.682 L59.4873333,6.74866667 C59.5390293,6.79453544 59.5570532,6.86755046 59.5326407,6.93220681 C59.5082281,6.99686316 59.4464445,7.03974491 59.3773333,7.04 L0.968,7.04 C0.43780664,7.04 0.008,7.46980664 0.008,8 C0.008,8.53019336 0.43780664,8.96 0.968,8.96 L59.3753333,8.96 C59.4444018,8.96066447 59.5059646,9.00369856 59.5303143,9.06833592 C59.554664,9.13297329 59.5367963,9.20592985 59.4853333,9.252 L53.7273333,14.3186667 C53.4530732,14.5401889 53.3222993,14.8942156 53.3866944,15.2408336 C53.4510894,15.5874517 53.7002914,15.8708861 54.0358144,15.9791223 C54.3713374,16.0873584 54.7391919,16.0029798 54.994,15.7593333 L62.448,9.2 C62.79237,8.89609477 62.9901453,8.45929043 62.9913333,8 Z" id="Path"></path>
                    </g>
                </g>
            </g>
        </g>
    </g>
</svg>