<?xml version="1.0" encoding="UTF-8"?>
<svg width="13px" height="10px" viewBox="0 0 13 10" version="1.1" xmlns="http://www.w3.org/2000/svg" xmlns:xlink="http://www.w3.org/1999/xlink">
    <!-- Generator: Sketch 60.1 (88133) - https://sketch.com -->
    <title>email-action-unread</title>
    <desc>Created with Sketch.</desc>
    <g id="Final" stroke="none" stroke-width="1" fill="none" fill-rule="evenodd">
        <g id="OnePager---Mitusbishi-Mobile" transform="translate(-12.000000, -5523.000000)" fill="#000000" fill-rule="nonzero">
            <g id="Contact" transform="translate(9.000000, 4473.000000)">
                <g id="email-action-unread" transform="translate(3.000000, 1050.000000)">
                    <path d="M12.541199,1.68792002 C12.5053003,1.67244287 12.4637402,1.68067117 12.436199,1.7087085 L7.31902483,6.90316195 C6.75527083,7.47522727 5.84157917,7.47522727 5.27782517,6.90316195 L0.162751014,1.7087085 C0.135354895,1.68039594 0.0936170018,1.67213244 0.057751031,1.68792002 C0.0225561197,1.70331163 -0.000177199497,1.73856318 0,1.77747038 L0,8.17392409 C0,8.7627014 0.470101975,9.23999971 1.05000087,9.23999971 L11.5499991,9.23999971 C12.129898,9.23999971 12.5999996,8.7627014 12.5999996,8.17392409 L12.5999996,1.77747038 C12.6001414,1.73826256 12.5768998,1.70286649 12.541199,1.68792002 Z" id="Path"></path>
                    <path d="M5.84932873,5.68326781 C6.09829995,5.94557715 6.50119014,5.94557715 6.75016136,5.68326781 L11.685379,0.468401193 C11.753519,0.39639704 11.7773777,0.289929091 11.747031,0.193282791 C11.6909838,0.0161517653 11.5350704,0 11.3954618,0 L1.20504737,0 C1.06492918,0 0.907996795,0.0161517653 0.852968557,0.193282791 C0.822621916,0.289929091 0.846480599,0.39639704 0.914620564,0.468401193 L5.84932873,5.68326781 Z" id="Path"></path>
                </g>
            </g>
        </g>
    </g>
</svg>