<?xml version="1.0" encoding="UTF-8"?>
<svg width="15px" height="14px" viewBox="0 0 15 14" version="1.1" xmlns="http://www.w3.org/2000/svg" xmlns:xlink="http://www.w3.org/1999/xlink">
    <!-- Generator: Sketch 60.1 (88133) - https://sketch.com -->
    <title>laptop</title>
    <desc>Created with Sketch.</desc>
    <g id="Final" stroke="none" stroke-width="1" fill="none" fill-rule="evenodd">
        <g id="OnePager---Mitusbishi-Mobile" transform="translate(-11.000000, -5494.000000)" fill="#000000" fill-rule="nonzero">
            <g id="Contact" transform="translate(9.000000, 4473.000000)">
                <g id="laptop" transform="translate(2.000000, 1021.000000)">
                    <path d="M14.1540522,11.6899246 L12.8504308,7.78375234 C12.8069962,7.66391068 12.7351048,7.55449897 12.6399891,7.46348052 C12.8961503,7.19062446 13.0377544,6.84226008 13.0391455,6.48150426 L13.0391455,1.52529794 C13.0388166,1.12026288 12.8637709,0.73195421 12.5525515,0.445873073 C12.2413321,0.159791936 11.8194582,-0.000603709983 11.3798217,1.70766386e-06 L2.89572963,1.70766386e-06 C1.98252028,0.00189354112 1.24301656,0.68396153 1.24199278,1.52529794 L1.24199278,6.48150426 C1.24324168,6.84190796 1.38438226,7.19001247 1.63990769,7.46290861 C1.54479196,7.55392705 1.47290055,7.66333877 1.42946596,7.78318042 L0.141984645,11.6464592 C-0.0664715588,12.0306137 -0.0441864091,12.4868143 0.200882695,12.8521645 C0.445951799,13.2175147 0.878864912,13.4399905 1.34504095,13.4399905 L12.9298897,13.4399905 C13.3967224,13.441638 13.8306625,13.2187634 14.0745934,12.8520538 C14.3167691,12.5032015 14.3467976,12.0640173 14.1540522,11.6899246 Z M9.31637533,11.9512893 C9.25880838,12.0250223 9.16664493,12.0691753 9.06806649,12.0702474 L5.21493415,12.0702474 C5.11521729,12.0701777 5.02160887,12.0259739 4.96332439,11.9514323 C4.90503991,11.8768906 4.88917761,11.7810892 4.92068818,11.693928 L5.29315143,10.6644829 C5.33535013,10.5477571 5.45385713,10.4689818 5.5873974,10.4688881 L8.69125784,10.4688881 C8.82502659,10.4687355 8.94385372,10.5475573 8.98612458,10.6644829 L9.35858783,11.693928 C9.38892836,11.781619 9.37160039,11.8774041 9.31202992,11.9512893 L9.31637533,11.9512893 Z M2.48353696,1.52529794 C2.48353696,1.31461975 2.66891569,1.14383133 2.89759194,1.14383133 L11.3798217,1.14383133 C11.6082555,1.14414686 11.793256,1.31484289 11.793256,1.52529794 L11.793256,6.48150426 C11.793256,6.69195931 11.6082555,6.86265535 11.3798217,6.86297087 L2.89572963,6.86297087 C2.66705337,6.86297087 2.48167464,6.69218245 2.48167464,6.48150426 L2.48353696,1.52529794 Z" id="Shape"></path>
                </g>
            </g>
        </g>
    </g>
</svg>