<?xml version="1.0" encoding="UTF-8"?>
<svg width="12px" height="12px" viewBox="0 0 12 12" version="1.1" xmlns="http://www.w3.org/2000/svg" xmlns:xlink="http://www.w3.org/1999/xlink">
    <!-- Generator: Sketch 60.1 (88133) - https://sketch.com -->
    <title>phone</title>
    <desc>Created with Sketch.</desc>
    <g id="Final" stroke="none" stroke-width="1" fill="none" fill-rule="evenodd">
        <g id="OnePager---Mitusbishi-Mobile" transform="translate(-12.000000, -5548.000000)" fill="#000000" fill-rule="nonzero">
            <g id="Contact" transform="translate(9.000000, 4473.000000)">
                <g id="phone" transform="translate(3.000000, 1075.000000)">
                    <path d="M11.33561,8.44509437 L10.0818358,7.18885835 C9.81220666,6.91831399 9.44621377,6.76628198 9.06455031,6.76628198 C8.68288686,6.76628198 8.31689397,6.91831399 8.04726487,7.18885835 L7.79160128,7.4449195 C6.53155954,6.38751507 5.36764942,5.22025265 4.31355375,3.95685447 L4.56921734,3.70079332 C5.1297442,3.1377478 5.1297442,2.2266163 4.56921734,1.66357078 L3.31288644,0.40887113 C2.74312143,-0.136290377 1.84603526,-0.136290377 1.27627025,0.40887113 L0.591091817,1.09818775 C-0.08752965,1.78275808 -0.194215807,2.8499964 0.335428223,3.65572655 C2.37822919,6.73861421 5.01609839,9.38110769 8.09379565,11.4276947 C8.9006018,11.9530206 9.96346522,11.846569 10.6504316,11.1716335 L11.3381667,10.4823169 C11.608229,10.2124435 11.7599996,9.84605107 11.7599996,9.46396169 C11.7599996,9.08187232 11.608229,8.71547984 11.3381667,8.44560649 L11.33561,8.44509437 Z" id="Path"></path>
                </g>
            </g>
        </g>
    </g>
</svg>