<?xml version="1.0" encoding="UTF-8"?>
<svg width="18px" height="14px" viewBox="0 0 18 14" version="1.1" xmlns="http://www.w3.org/2000/svg" xmlns:xlink="http://www.w3.org/1999/xlink">
    <!-- Generator: Sketch 60.1 (88133) - https://sketch.com -->
    <title>social-media-twitter</title>
    <desc>Created with Sketch.</desc>
    <g id="Final" stroke="none" stroke-width="1" fill="none" fill-rule="evenodd">
        <g id="OnePager---Mitusbishi-Mobile" transform="translate(-168.000000, -5614.000000)" fill="#000000" fill-rule="nonzero">
            <g id="Contact" transform="translate(9.000000, 4473.000000)">
                <g id="Social" transform="translate(131.000000, 1139.000000)">
                    <g id="social-media-twitter" transform="translate(28.559999, 1.680000)">
                        <path d="M16.9717354,3.23132526 C17.0773421,3.14354621 17.1245386,3.00379118 17.0937723,2.86995776 C17.063006,2.73612434 16.9595176,2.63100952 16.8261802,2.59816017 L16.2512372,2.45260498 C16.1453765,2.4261024 16.0569986,2.35348886 16.0104644,2.25478 C15.9639302,2.15607113 15.9641529,2.04168873 16.0110711,1.94316181 L16.3312925,1.29544121 C16.3930674,1.1672677 16.3744716,1.0148471 16.2836922,0.905285757 C16.1929128,0.795724419 16.0466044,0.749122721 15.9091825,0.785998036 L14.4536305,1.19355257 C14.3436756,1.22562276 14.2250382,1.20405234 14.1334091,1.1353305 C13.503533,0.662923377 12.7374264,0.407554537 11.9500812,0.407554537 C9.94038343,0.407554537 8.31120145,2.03673651 8.31120145,4.04643433 L8.31120145,4.30843368 C8.31186989,4.40097506 8.2429661,4.47927483 8.15109074,4.49037767 C6.1060403,4.73054373 4.14832297,3.68982411 2.03777269,1.25905241 C1.94429804,1.15596124 1.80101078,1.11381793 1.66660695,1.14988602 C1.54563381,1.20549138 1.46468683,1.32272493 1.45555192,1.45555192 C1.16404672,2.65299208 1.28190466,3.91355962 1.79032886,5.03620964 C1.8209956,5.09691077 1.81524917,5.16964734 1.77543118,5.22477995 C1.73561319,5.27991256 1.66837177,5.30823608 1.60110711,5.29820898 L0.785998036,5.13809827 C0.668510574,5.11920902 0.549210031,5.15895759 0.466530005,5.24453867 C0.38384998,5.33011974 0.348237626,5.45071961 0.371165739,5.56748609 C0.498446567,6.69885709 1.13307107,7.71104301 2.09599476,8.31847921 C2.15876368,8.34887959 2.19863121,8.41248556 2.19863121,8.4822288 C2.19863121,8.55197204 2.15876368,8.61557802 2.09599476,8.64597839 L1.7102735,8.79881134 C1.61556242,8.83678128 1.54114503,8.91277248 1.50516522,9.00825735 C1.46918542,9.10374221 1.47494937,9.20994667 1.52105175,9.30097676 C1.95403173,10.2483992 2.82444408,10.9229687 3.84993482,11.1058611 C3.92189085,11.1319777 3.96980417,11.2003395 3.96980417,11.2768885 C3.96980417,11.3534374 3.92189085,11.4217993 3.84993482,11.4479158 C2.86042406,11.8571705 1.79852687,12.0626191 0.727775959,12.0519699 C0.52680618,12.0117759 0.331304349,12.1421105 0.291110393,12.3430803 C0.250916437,12.54405 0.38125099,12.7395519 0.582220767,12.7797458 C2.43626256,13.659078 4.45484975,14.1376865 6.50631707,14.1843534 C8.31080363,14.2118753 10.0831774,13.7054828 11.6007488,12.7288015 C14.1361587,11.0363429 15.655355,8.18648353 15.6471831,5.13809827 L15.6471831,4.50493319 C15.6480821,4.3979754 15.6959931,4.29682994 15.7781828,4.22837832 L16.9717354,3.23132526 Z" id="Path"></path>
                    </g>
                </g>
            </g>
        </g>
    </g>
</svg>