<?xml version="1.0" encoding="UTF-8"?>
<svg width="17px" height="16px" viewBox="0 0 17 16" version="1.1" xmlns="http://www.w3.org/2000/svg" xmlns:xlink="http://www.w3.org/1999/xlink">
    <!-- Generator: Sketch 60.1 (88133) - https://sketch.com -->
    <title>social-instagram-1</title>
    <desc>Created with Sketch.</desc>
    <g id="Final" stroke="none" stroke-width="1" fill="none" fill-rule="evenodd">
        <g id="OnePager---Mitusbishi-Mobile" transform="translate(-198.000000, -5612.000000)" fill="#000000" fill-rule="nonzero">
            <g id="Contact" transform="translate(9.000000, 4473.000000)">
                <g id="Social" transform="translate(131.000000, 1139.000000)">
                    <g id="social-instagram-1" transform="translate(58.799998, 0.000000)">
                        <path d="M12.0165496,7.48124977 C11.9657467,7.48179637 11.9179824,7.50554295 11.8868804,7.54571635 C11.8557784,7.58588975 11.8447533,7.63807953 11.8569496,7.68739976 C12.2545167,9.29725459 11.6149444,10.9852049 10.2503987,11.927387 C8.88585299,12.8695691 7.08079651,12.8695691 5.71625078,11.927387 C4.35170506,10.9852049 3.71213282,9.29725459 4.10969987,7.68739976 C4.12189622,7.63807953 4.11087106,7.58588975 4.07976908,7.54571635 C4.04866709,7.50554295 4.0009028,7.48179637 3.95009988,7.48124977 L0.33249999,7.48124977 C0.148865316,7.48124977 0,7.63011508 0,7.81374976 L0,11.6374996 C0.00366191329,14.0232319 1.93676757,15.9563376 4.32249987,15.9599995 L11.6374996,15.9599995 C14.0232319,15.9563376 15.9563376,14.0232319 15.9599995,11.6374996 L15.9599995,7.81374976 C15.9599995,7.63011508 15.8111342,7.48124977 15.6274995,7.48124977 L12.0165496,7.48124977 Z" id="Path"></path>
                        <path d="M15.6274995,6.48375461 C15.8111342,6.48375461 15.9599995,6.33488448 15.9599995,6.15124981 L15.9599995,4.32249987 C15.9563376,1.93676757 14.0232319,0.00366191329 11.6374996,9.21571847e-17 L7.81374976,9.21571847e-17 C7.63011508,8.09356922e-17 7.48124977,0.148865316 7.48124977,0.33249999 L7.48124977,2.99249991 C7.48124977,3.26795192 7.25795179,3.49124989 6.98249978,3.49124989 C6.70704777,3.49124989 6.4837498,3.26795192 6.4837498,2.99249991 L6.4837498,0.33249999 C6.4837498,0.148865316 6.33488448,1.03432887e-16 6.15124981,9.21571847e-17 L5.81874982,9.21571847e-17 C5.63511514,8.09356922e-17 5.48624983,0.148865316 5.48624983,0.33249999 L5.48624983,2.99249991 C5.48624983,3.26795192 5.26295185,3.49124989 4.98749984,3.49124989 C4.71204783,3.49124989 4.48874986,3.26795192 4.48874986,2.99249991 L4.48874986,0.33249999 C4.48882232,0.241962018 4.4519714,0.155309569 4.38670862,0.0925568923 C4.32144583,0.0298042151 4.23341541,-0.00362154901 4.14294987,9.21571847e-17 L3.77719988,9.21571847e-17 C3.61194198,0.0233579838 3.48960731,0.165607596 3.49124989,0.33249999 L3.49124989,2.99249991 C3.49124989,3.26795192 3.26795192,3.49124989 2.99249991,3.49124989 C2.7170479,3.49124989 2.49374992,3.26795192 2.49374992,2.99249991 L2.49374992,0.664999979 C2.48743258,0.609793671 2.45395182,0.561393449 2.40452162,0.536010372 C2.35509142,0.510627296 2.29624788,0.511617746 2.24769993,0.538649983 C0.864376545,1.29553575 0.0029721193,2.74565148 0,4.32249987 L0,6.15124981 C0,6.33488448 0.148865316,6.48375461 0.33249999,6.48375461 L4.45549986,6.48375461 C4.56369088,6.48433114 4.66539972,6.43223637 4.72814985,6.3440998 C5.47626586,5.288676 6.68964899,4.66146539 7.98332475,4.66146539 C9.27700051,4.66146539 10.4903836,5.288676 11.2384996,6.3440998 C11.3012498,6.43223637 11.4029586,6.48433114 11.5111496,6.48375461 L15.6274995,6.48375461 Z M11.6374996,2.99249991 C11.6374996,2.62523056 11.9352303,2.32749993 12.3024996,2.32749993 L12.9674996,2.32749993 C13.3347689,2.32749993 13.6324996,2.62523056 13.6324996,2.99249991 L13.6324996,3.65749989 C13.6324996,4.02476923 13.3347689,4.32249987 12.9674996,4.32249987 L12.3024996,4.32249987 C11.9352303,4.32249987 11.6374996,4.02476923 11.6374996,3.65749989 L11.6374996,2.99249991 Z" id="Shape"></path>
                        <circle id="Oval" cx="7.97999975" cy="8.64499973" r="1.99499994"></circle>
                    </g>
                </g>
            </g>
        </g>
    </g>
</svg>