<?xml version="1.0" encoding="UTF-8"?>
<svg width="16px" height="17px" viewBox="0 0 16 17" version="1.1" xmlns="http://www.w3.org/2000/svg" xmlns:xlink="http://www.w3.org/1999/xlink">
    <!-- Generator: Sketch 60.1 (88133) - https://sketch.com -->
    <title>social-media-facebook-1</title>
    <desc>Created with Sketch.</desc>
    <g id="Final" stroke="none" stroke-width="1" fill="none" fill-rule="evenodd">
        <g id="OnePager---Mitusbishi-Mobile" transform="translate(-140.000000, -5612.000000)" fill="#000000" fill-rule="nonzero">
            <g id="Contact" transform="translate(9.000000, 4473.000000)">
                <g id="Social" transform="translate(131.000000, 1139.000000)">
                    <g id="social-media-facebook-1" transform="translate(0.000000, 0.840000)">
                        <path d="M12.4807195,9.29510359 C12.4612408,9.45628843 12.3238728,9.57717228 12.1615195,9.57599958 L10.8527995,9.57599958 C10.6765102,9.57599958 10.5335995,9.71891028 10.5335995,9.89519957 L10.5335995,15.0023993 C10.5335995,15.1786886 10.6765102,15.3215993 10.8527995,15.3215993 L14.6831994,15.3215993 C15.0357779,15.3215993 15.3215993,15.0357779 15.3215993,14.6831994 L15.3215993,0.638399972 C15.3215993,0.285821403 15.0357779,0 14.6831994,0 L0.638399972,0 C0.285821403,0 0,0.285821403 0,0.638399972 L0,14.6831994 C0,15.0357779 0.285821403,15.3215993 0.638399972,15.3215993 L7.66079966,15.3215993 C7.83708895,15.3215993 7.97999965,15.1786886 7.97999965,15.0023993 L7.97999965,9.89519957 C7.97999965,9.71891028 7.83708895,9.57599958 7.66079966,9.57599958 L6.38399972,9.57599958 C6.20771044,9.57599958 6.06479973,9.43308888 6.06479973,9.25679959 L6.06479973,7.34159968 C6.06479973,7.16531039 6.20771044,7.02239969 6.38399972,7.02239969 L7.66079966,7.02239969 C7.83708895,7.02239969 7.97999965,6.87948899 7.97999965,6.70319971 L7.97999965,5.86689574 C7.97999965,3.86072369 9.60632343,2.2343999 11.6124955,2.2343999 L12.4487995,2.2343999 C12.5334566,2.2343999 12.6146463,2.2680298 12.6745079,2.32789141 C12.7343695,2.38775302 12.7679994,2.46894279 12.7679994,2.55359989 L12.7679994,4.4687998 C12.7679994,4.64508909 12.6250887,4.78799979 12.4487995,4.78799979 L11.6124955,4.78799979 C11.0166377,4.78799979 10.5335995,5.27103796 10.5335995,5.86689574 L10.5335995,6.70319971 C10.5335995,6.87948899 10.6765102,7.02239969 10.8527995,7.02239969 L12.4041115,7.02239969 C12.4958431,7.02173652 12.583426,7.06057124 12.6445223,7.12899911 C12.7056186,7.19742699 12.7343219,7.28883281 12.7233114,7.37990368 L12.4807195,9.29510359 Z" id="Path"></path>
                    </g>
                </g>
            </g>
        </g>
    </g>
</svg>